<svg id="svg" version="1.1" xmlns="http://www.w3.org/2000/svg" xmlns:xlink="http://www.w3.org/1999/xlink" width="400" height="400" viewBox="0, 0, 400,400"><g id="svgg"><path id="path0" d="M94.141 75.372 C 94.141 78.067,93.950 80.459,93.690 81.030 L 93.240 82.019 82.460 82.123 L 71.680 82.227 71.633 86.987 C 71.569 93.556,72.039 93.055,66.083 92.902 L 61.072 92.773 60.943 94.531 C 60.781 96.731,60.798 98.544,61.001 100.717 C 61.256 103.459,60.165 103.986,54.542 103.832 L 50.091 103.711 50.024 120.215 C 49.987 129.292,50.099 136.719,50.272 136.719 C 50.619 136.719,50.560 140.156,50.181 141.992 C 49.991 142.913,50.033 143.039,50.378 142.578 C 50.749 142.082,50.807 142.112,50.754 142.773 C 50.719 143.203,50.712 144.126,50.736 144.824 L 50.781 146.094 60.568 146.094 L 70.355 146.094 70.236 140.852 C 70.171 137.968,70.189 135.682,70.277 135.770 C 70.364 135.858,70.645 135.757,70.902 135.544 C 71.194 135.302,72.043 135.284,73.184 135.497 C 74.183 135.684,75.000 135.727,75.000 135.594 C 75.000 135.278,78.422 135.323,78.742 135.643 C 78.876 135.778,79.408 135.727,79.923 135.532 C 80.514 135.307,80.859 135.316,80.859 135.557 C 80.859 135.766,81.749 135.938,82.836 135.938 C 84.230 135.938,84.730 135.805,84.533 135.487 C 84.363 135.212,84.426 135.141,84.693 135.307 C 85.285 135.672,87.890 135.861,87.681 135.524 C 87.590 135.376,88.285 135.277,89.225 135.303 C 90.165 135.330,90.840 135.507,90.724 135.697 C 90.609 135.887,91.057 135.963,91.721 135.865 C 92.384 135.768,92.846 135.820,92.746 135.981 C 92.647 136.142,92.756 136.392,92.989 136.536 C 93.222 136.680,93.320 137.039,93.207 137.334 C 93.094 137.629,92.978 142.528,92.950 148.220 C 92.921 153.913,92.782 158.555,92.641 158.536 C 91.876 158.433,91.389 158.640,91.598 158.978 C 91.750 159.224,90.213 159.309,87.310 159.214 C 81.233 159.016,81.709 158.109,81.781 169.750 C 81.813 175.040,81.707 179.451,81.545 179.551 C 81.383 179.652,81.250 180.043,81.250 180.421 C 81.250 181.052,80.810 181.094,75.879 180.937 L 70.508 180.765 70.611 207.724 L 70.714 234.682 75.298 234.770 C 77.820 234.818,80.190 234.848,80.566 234.836 C 81.089 234.819,81.250 235.130,81.250 236.157 C 81.250 236.896,81.390 237.500,81.562 237.500 C 81.734 237.500,81.883 240.269,81.894 243.652 C 81.904 247.036,81.940 251.167,81.972 252.832 L 82.031 255.859 85.840 255.864 C 90.935 255.869,92.306 256.127,92.799 257.172 C 93.257 258.141,93.239 260.965,92.771 261.722 C 92.595 262.007,92.613 262.134,92.811 262.012 C 93.011 261.888,93.145 263.049,93.120 264.686 L 93.076 267.578 95.854 267.646 L 98.633 267.713 96.094 267.969 C 94.608 268.118,97.848 268.255,103.906 268.298 C 109.600 268.338,114.461 268.501,114.710 268.659 C 115.511 269.169,115.125 290.395,114.311 290.556 C 113.959 290.625,113.672 290.859,113.672 291.075 C 113.672 291.291,113.101 291.428,112.402 291.380 C 111.704 291.332,109.419 291.318,107.324 291.349 L 103.516 291.406 103.516 296.266 C 103.516 299.291,103.358 301.223,103.098 301.384 C 102.869 301.525,102.772 301.878,102.883 302.167 C 103.043 302.586,102.066 302.715,98.026 302.811 C 95.244 302.876,92.923 302.795,92.869 302.631 C 92.814 302.467,92.752 309.586,92.731 318.452 L 92.692 334.570 102.791 334.460 L 112.891 334.350 112.891 323.402 C 112.891 316.151,113.023 312.536,113.284 312.697 C 113.500 312.831,113.783 312.665,113.912 312.329 C 114.120 311.786,116.430 311.719,134.807 311.719 L 155.469 311.719 155.469 306.682 C 155.469 300.954,155.318 301.196,158.919 301.133 C 160.616 301.103,160.905 301.021,160.156 300.781 C 159.432 300.549,159.786 300.466,161.523 300.457 C 163.168 300.449,163.634 300.546,163.086 300.781 C 162.577 301.000,163.530 301.110,165.820 301.098 C 168.232 301.085,168.968 300.986,168.164 300.781 C 167.448 300.599,168.815 300.494,171.680 300.511 L 176.367 300.538 172.852 300.781 L 169.336 301.024 174.219 301.144 C 176.904 301.210,179.233 301.244,179.395 301.218 C 179.556 301.193,179.688 303.545,179.688 306.445 L 179.688 311.719 184.718 311.719 C 191.097 311.719,190.815 311.428,190.818 318.025 L 190.820 323.046 219.043 323.053 C 254.102 323.062,267.294 323.062,272.113 323.053 C 275.808 323.047,275.863 323.033,275.647 322.168 C 275.526 321.685,275.399 319.312,275.364 316.895 L 275.300 312.500 270.478 312.500 L 265.655 312.500 265.293 311.035 C 265.094 310.229,264.946 309.131,264.963 308.594 C 264.980 308.057,264.960 306.519,264.919 305.176 L 264.844 302.734 243.401 302.734 C 224.209 302.734,221.934 302.670,221.721 302.116 C 221.591 301.777,221.484 299.931,221.484 298.015 C 221.484 295.953,221.325 294.531,221.094 294.531 C 220.879 294.531,220.715 294.136,220.731 293.652 C 220.757 292.813,220.773 292.809,221.096 293.555 C 221.291 294.006,221.403 286.918,221.361 276.758 L 221.289 259.180 215.918 259.071 C 212.776 259.007,210.547 258.805,210.547 258.583 C 210.547 258.374,210.283 258.203,209.961 258.203 C 209.470 258.203,209.375 257.378,209.375 253.125 L 209.375 248.047 199.261 248.047 C 188.051 248.047,188.726 248.216,188.616 245.378 L 188.561 243.945 188.281 245.508 C 188.087 246.591,187.984 245.655,187.946 242.457 C 187.916 239.920,188.031 237.931,188.203 238.038 C 188.375 238.144,188.558 237.598,188.610 236.825 C 188.662 236.051,188.798 235.268,188.911 235.085 C 189.025 234.901,196.664 234.761,205.887 234.774 L 222.656 234.797 222.656 235.888 C 222.656 236.488,222.788 237.112,222.949 237.274 C 223.110 237.437,223.242 239.121,223.242 241.017 C 223.242 245.254,222.721 244.873,228.625 244.945 C 231.355 244.978,233.499 245.150,233.389 245.327 C 233.280 245.504,233.372 245.761,233.594 245.898 C 233.816 246.036,233.896 246.311,233.772 246.511 C 233.649 246.711,233.691 246.875,233.867 246.875 C 234.043 246.875,234.185 249.072,234.183 251.756 L 234.180 256.638 239.160 256.639 L 244.141 256.641 244.141 258.594 C 244.141 259.668,244.316 260.547,244.531 260.547 C 244.746 260.547,244.922 260.986,244.922 261.523 C 244.922 262.061,244.760 262.500,244.563 262.500 C 244.212 262.500,244.387 267.420,244.759 268.022 C 245.536 269.279,243.546 269.922,238.878 269.922 L 234.180 269.921 234.290 279.699 L 234.401 289.476 239.337 289.367 C 243.328 289.279,244.303 289.146,244.431 288.672 C 244.573 288.151,244.545 288.151,244.176 288.672 C 243.875 289.098,243.762 287.925,243.762 284.375 C 243.762 281.080,243.885 279.683,244.141 280.078 C 244.449 280.556,244.520 280.509,244.525 279.822 C 244.530 279.153,244.712 279.019,245.410 279.172 C 246.116 279.327,246.174 279.282,245.703 278.946 C 245.234 278.611,245.352 278.528,246.289 278.528 C 247.188 278.528,247.325 278.616,246.875 278.906 C 246.456 279.177,246.880 279.287,248.363 279.291 C 249.647 279.295,250.345 279.148,250.195 278.906 C 250.046 278.665,250.671 278.530,251.832 278.555 C 253.357 278.586,253.527 278.652,252.734 278.906 L 251.758 279.219 252.832 279.258 L 253.906 279.297 253.912 274.121 C 253.920 267.373,253.457 267.844,260.254 267.658 L 264.844 267.532 264.844 262.477 C 264.844 259.611,265.001 257.422,265.208 257.422 C 265.408 257.422,265.684 257.070,265.820 256.641 C 266.066 255.868,266.411 255.859,297.711 255.859 L 329.354 255.859 329.257 244.336 L 329.159 232.813 308.502 232.813 C 292.829 232.813,287.913 232.702,288.127 232.355 C 288.317 232.048,288.196 231.980,287.759 232.148 C 287.335 232.311,287.109 232.198,287.109 231.824 C 287.109 231.508,286.934 231.250,286.719 231.250 C 285.857 231.250,286.229 212.989,287.109 212.109 C 287.871 211.348,288.411 211.328,308.581 211.328 C 325.620 211.328,329.237 211.237,329.073 210.809 C 328.964 210.524,329.030 209.300,329.219 208.090 C 329.450 206.619,329.433 205.970,329.169 206.134 C 328.928 206.283,328.875 206.112,329.035 205.696 C 329.179 205.321,329.297 204.155,329.297 203.105 C 329.297 201.485,329.395 201.234,329.947 201.446 C 330.304 201.583,330.497 201.534,330.375 201.336 C 330.243 201.123,332.039 201.017,334.788 201.076 C 340.533 201.199,340.370 201.383,340.068 195.097 L 339.854 190.625 341.724 190.625 C 342.752 190.625,343.830 190.405,344.120 190.137 C 344.541 189.746,344.591 189.746,344.370 190.137 C 344.160 190.510,344.840 190.625,347.256 190.625 L 350.418 190.625 350.364 183.301 C 350.289 173.138,350.041 170.910,348.979 170.857 C 348.525 170.834,347.966 170.699,347.736 170.557 C 347.507 170.416,347.209 170.478,347.074 170.697 C 346.939 170.915,346.092 171.067,345.192 171.035 L 343.555 170.976 345.313 170.689 C 346.982 170.416,346.950 170.404,344.668 170.455 C 343.346 170.484,342.346 170.640,342.444 170.801 C 342.543 170.962,342.130 171.073,341.527 171.048 C 340.779 171.018,340.663 170.943,341.161 170.815 C 341.829 170.644,341.815 170.589,340.998 170.177 C 340.126 169.738,340.106 169.597,340.196 164.551 L 340.289 159.375 338.992 159.342 C 338.279 159.324,336.061 159.329,334.063 159.352 C 328.974 159.411,328.852 159.237,329.475 152.832 C 329.715 150.365,329.675 149.609,329.306 149.609 C 329.037 149.609,328.922 149.350,329.048 149.023 C 329.184 148.667,329.048 148.437,328.699 148.437 C 328.383 148.438,328.125 148.264,328.125 148.051 C 328.125 147.610,321.744 147.747,320.508 148.215 C 319.860 148.461,319.827 148.433,320.313 148.053 C 320.792 147.678,320.703 147.626,319.824 147.767 C 319.094 147.883,318.750 147.768,318.750 147.407 C 318.750 147.114,318.574 146.875,318.359 146.875 C 318.121 146.875,317.969 145.056,317.969 142.200 L 317.969 137.524 313.184 137.414 L 308.398 137.305 308.189 134.180 L 307.980 131.055 307.773 133.203 C 307.620 134.793,307.548 134.261,307.494 131.152 L 307.422 126.953 292.065 126.953 L 276.707 126.953 276.049 125.573 C 275.346 124.098,275.062 115.625,275.716 115.625 C 275.895 115.625,276.042 115.365,276.042 115.047 C 276.042 114.586,275.361 114.455,272.689 114.406 C 264.496 114.253,265.249 114.667,265.240 110.308 C 265.237 108.996,265.123 107.106,264.986 106.109 L 264.738 104.297 255.021 104.297 L 245.304 104.297 245.406 119.787 C 245.505 134.917,245.526 135.281,246.289 135.450 C 246.719 135.545,249.041 135.649,251.449 135.682 L 255.827 135.742 256.084 137.796 C 256.225 138.926,256.237 141.386,256.111 143.265 C 255.984 145.143,255.876 146.943,255.870 147.266 C 255.862 147.762,255.005 147.842,250.294 147.790 C 246.883 147.752,245.256 147.845,246.094 148.031 C 247.335 148.307,247.362 148.339,246.387 148.386 L 245.313 148.438 245.313 153.516 C 245.313 156.309,245.181 158.573,245.020 158.547 C 244.234 158.423,243.729 158.635,243.952 158.994 C 244.114 159.257,243.080 159.380,240.947 159.350 C 239.159 159.325,236.948 159.321,236.035 159.340 L 234.375 159.375 234.348 164.746 C 234.330 168.111,234.195 169.825,233.984 169.336 C 233.656 168.573,233.648 168.574,233.621 169.382 C 233.586 170.452,231.589 170.862,226.735 170.796 L 223.197 170.748 223.274 175.206 C 223.333 178.592,223.222 179.770,222.813 180.110 C 222.517 180.356,222.343 180.669,222.428 180.806 C 222.512 180.943,213.502 181.018,202.404 180.974 C 191.306 180.930,181.655 180.982,180.957 181.090 L 179.688 181.285 179.688 186.304 C 179.687 190.495,179.587 191.361,179.077 191.557 C 178.741 191.686,178.582 191.979,178.724 192.209 C 178.905 192.502,175.890 192.590,168.592 192.504 L 158.202 192.383 158.203 196.309 C 158.203 198.908,158.368 200.412,158.691 200.760 C 159.086 201.186,159.075 201.227,158.630 200.973 C 158.191 200.723,158.129 200.899,158.320 201.856 L 158.560 203.052 156.254 203.320 C 154.986 203.467,153.775 203.481,153.563 203.350 C 153.352 203.219,153.065 203.297,152.926 203.522 C 152.786 203.748,152.115 203.895,151.434 203.849 C 150.753 203.803,149.536 203.797,148.730 203.836 L 147.266 203.906 147.266 208.562 C 147.266 213.967,147.146 214.437,145.759 214.499 C 144.736 214.545,144.738 214.549,145.898 214.864 C 146.627 215.063,145.041 215.156,141.699 215.111 L 136.328 215.039 136.328 230.154 C 136.328 244.809,136.304 245.285,135.549 245.814 C 135.121 246.114,134.852 246.441,134.953 246.541 C 135.053 246.641,132.672 246.769,129.663 246.825 C 121.960 246.968,122.685 248.718,122.669 229.957 C 122.661 219.947,122.789 214.880,123.047 215.039 C 123.282 215.185,123.438 214.661,123.438 213.721 C 123.438 211.840,123.371 211.863,129.095 211.750 C 134.267 211.649,133.696 212.284,133.619 206.716 L 133.555 202.064 134.713 201.584 C 135.477 201.268,137.449 201.150,140.512 201.236 L 145.153 201.367 145.002 196.061 C 144.862 191.132,144.903 190.751,145.570 190.694 C 145.966 190.660,148.324 190.639,150.811 190.648 L 155.333 190.665 155.469 188.399 C 155.544 187.152,155.596 184.771,155.585 183.105 L 155.565 180.078 161.474 180.032 C 165.047 180.004,166.920 179.868,166.211 179.688 C 165.431 179.489,165.300 179.374,165.820 179.344 C 166.557 179.300,166.602 179.022,166.602 174.512 C 166.602 169.837,166.622 169.724,167.486 169.601 C 167.973 169.532,168.274 169.318,168.155 169.126 C 168.031 168.925,170.110 168.816,173.032 168.869 L 178.125 168.961 178.125 163.191 L 178.125 157.422 182.910 157.376 C 185.542 157.350,187.783 157.336,187.891 157.343 C 188.087 157.357,187.944 104.220,187.748 104.024 C 187.690 103.966,185.676 103.900,183.273 103.877 C 180.759 103.853,178.997 103.685,179.123 103.480 C 179.244 103.285,179.069 103.125,178.734 103.125 C 178.383 103.125,178.097 102.753,178.058 102.246 C 178.021 101.763,177.952 101.104,177.904 100.781 C 177.857 100.459,177.799 98.589,177.776 96.625 L 177.734 93.055 172.949 93.028 C 170.317 93.013,168.032 92.994,167.871 92.985 C 167.710 92.976,167.578 92.607,167.578 92.164 C 167.578 91.715,167.402 91.469,167.178 91.608 C 166.958 91.744,166.803 91.710,166.833 91.533 C 166.864 91.356,166.869 89.146,166.843 86.621 L 166.797 82.031 157.394 82.031 C 145.924 82.031,146.875 82.594,146.875 75.809 L 146.875 70.703 120.508 70.703 L 94.141 70.703 94.141 75.372 M93.067 73.242 C 93.072 74.102,93.152 74.407,93.245 73.921 C 93.338 73.435,93.335 72.732,93.237 72.359 C 93.139 71.985,93.063 72.383,93.067 73.242 M93.100 77.734 C 93.100 79.346,93.169 80.005,93.253 79.199 C 93.338 78.394,93.338 77.075,93.253 76.270 C 93.169 75.464,93.100 76.123,93.100 77.734 M62.971 92.086 C 64.412 92.161,66.873 92.162,68.440 92.087 C 70.007 92.013,68.828 91.952,65.820 91.951 C 62.813 91.950,61.530 92.011,62.971 92.086 M169.238 92.066 C 169.614 92.164,170.229 92.164,170.605 92.066 C 170.981 91.968,170.674 91.888,169.922 91.888 C 169.170 91.888,168.862 91.968,169.238 92.066 M59.912 96.680 C 59.913 99.043,59.977 99.959,60.055 98.716 C 60.132 97.473,60.132 95.539,60.053 94.419 C 59.974 93.299,59.911 94.316,59.912 96.680 M307.911 128.320 C 307.915 129.180,307.995 129.485,308.089 128.999 C 308.182 128.513,308.179 127.810,308.081 127.437 C 307.983 127.063,307.907 127.461,307.911 128.320 M83.501 135.425 C 83.127 135.522,82.424 135.526,81.938 135.433 C 81.452 135.339,81.758 135.259,82.617 135.255 C 83.477 135.250,83.874 135.327,83.501 135.425 M91.936 139.648 C 91.934 141.582,92.000 142.422,92.082 141.516 C 92.164 140.609,92.165 139.027,92.084 138.000 C 92.004 136.973,91.937 137.715,91.936 139.648 M255.203 139.453 C 255.203 140.850,255.274 141.421,255.361 140.723 C 255.447 140.024,255.447 138.882,255.361 138.184 C 255.274 137.485,255.203 138.057,255.203 139.453 M69.811 142.871 C 69.722 143.462,69.648 142.979,69.648 141.797 C 69.648 140.615,69.722 140.132,69.811 140.723 C 69.901 141.313,69.901 142.280,69.811 142.871 M91.918 145.508 C 91.920 146.797,91.993 147.277,92.080 146.575 C 92.167 145.873,92.165 144.818,92.076 144.231 C 91.987 143.644,91.916 144.219,91.918 145.508 M252.647 148.331 C 251.847 148.415,250.441 148.416,249.522 148.333 C 248.603 148.251,249.258 148.182,250.977 148.181 C 252.695 148.179,253.447 148.247,252.647 148.331 M91.933 153.125 C 91.933 154.951,92.001 155.698,92.083 154.785 C 92.165 153.872,92.165 152.378,92.083 151.465 C 92.001 150.552,91.933 151.299,91.933 153.125 M183.487 156.926 C 182.677 157.010,181.446 157.009,180.753 156.923 C 180.060 156.836,180.723 156.767,182.227 156.769 C 183.730 156.771,184.298 156.841,183.487 156.926 M300.135 157.129 C 300.035 157.290,302.055 157.422,304.623 157.422 C 310.200 157.422,309.766 156.871,309.766 163.936 C 309.766 168.875,309.716 169.227,308.989 169.417 C 308.561 169.529,308.308 169.776,308.426 169.966 C 308.779 170.537,298.075 170.398,297.509 169.824 C 296.831 169.137,296.890 157.742,297.573 157.515 C 297.836 157.427,297.976 157.233,297.884 157.084 C 297.792 156.935,298.301 156.818,299.016 156.824 C 299.731 156.831,300.234 156.968,300.135 157.129 M308.740 164.648 C 308.741 167.012,308.805 167.928,308.883 166.685 C 308.961 165.442,308.960 163.508,308.881 162.388 C 308.803 161.268,308.739 162.285,308.740 164.648 M340.742 167.188 C 340.742 168.369,340.815 168.853,340.905 168.262 C 340.994 167.671,340.994 166.704,340.905 166.113 C 340.815 165.522,340.742 166.006,340.742 167.188 M351.300 172.461 C 351.302 173.965,351.372 174.532,351.457 173.722 C 351.542 172.911,351.540 171.681,351.454 170.987 C 351.368 170.294,351.298 170.957,351.300 172.461 M166.940 174.805 C 166.941 176.953,167.006 177.782,167.085 176.647 C 167.164 175.512,167.164 173.754,167.083 172.741 C 167.003 171.728,166.939 172.656,166.940 174.805 M351.270 179.492 C 351.275 180.352,351.355 180.657,351.448 180.171 C 351.542 179.685,351.538 178.982,351.440 178.609 C 351.342 178.235,351.266 178.633,351.270 179.492 M161.816 179.573 C 161.333 179.666,160.542 179.666,160.059 179.573 C 159.575 179.479,159.971 179.403,160.938 179.403 C 161.904 179.403,162.300 179.479,161.816 179.573 M70.801 180.358 C 71.392 180.447,72.358 180.447,72.949 180.358 C 73.540 180.268,73.057 180.195,71.875 180.195 C 70.693 180.195,70.210 180.268,70.801 180.358 M76.475 180.365 C 77.394 180.447,78.800 180.446,79.600 180.362 C 80.400 180.278,79.648 180.211,77.930 180.212 C 76.211 180.213,75.556 180.282,76.475 180.365 M349.316 190.119 C 348.833 190.213,348.042 190.213,347.559 190.119 C 347.075 190.026,347.471 189.950,348.438 189.950 C 349.404 189.950,349.800 190.026,349.316 190.119 M340.753 194.336 C 340.755 195.840,340.826 196.407,340.910 195.597 C 340.995 194.786,340.993 193.556,340.907 192.862 C 340.821 192.169,340.751 192.832,340.753 194.336 M158.863 194.824 C 158.765 195.200,158.684 194.893,158.684 194.141 C 158.684 193.389,158.765 193.081,158.863 193.457 C 158.961 193.833,158.961 194.448,158.863 194.824 M297.977 212.011 C 303.631 212.073,312.772 212.072,318.289 212.011 C 323.806 211.950,319.180 211.900,308.008 211.900 C 296.836 211.900,292.322 211.950,297.977 212.011 M200.904 235.839 C 204.947 235.903,211.451 235.903,215.358 235.839 C 219.264 235.776,215.957 235.724,208.008 235.724 C 200.059 235.724,196.862 235.776,200.904 235.839 M237.207 256.135 C 236.724 256.228,235.933 256.228,235.449 256.135 C 234.966 256.042,235.361 255.966,236.328 255.966 C 237.295 255.966,237.690 256.042,237.207 256.135 M91.918 259.570 C 91.920 260.859,91.993 261.340,92.080 260.638 C 92.167 259.935,92.165 258.881,92.076 258.294 C 91.987 257.707,91.916 258.281,91.918 259.570 M110.470 267.869 C 108.387 267.939,104.871 267.939,102.657 267.870 C 100.444 267.800,102.148 267.743,106.445 267.742 C 110.742 267.742,112.553 267.799,110.470 267.869 M258.301 268.257 C 259.536 268.335,261.558 268.335,262.793 268.257 C 264.028 268.180,263.018 268.116,260.547 268.116 C 258.076 268.116,257.065 268.180,258.301 268.257 M254.447 273.438 C 254.447 276.123,254.510 277.222,254.586 275.879 C 254.662 274.536,254.662 272.339,254.586 270.996 C 254.510 269.653,254.447 270.752,254.447 273.438 M220.983 283.100 C 220.894 283.694,220.818 283.301,220.815 282.227 C 220.812 281.152,220.885 280.667,220.978 281.147 C 221.071 281.627,221.073 282.506,220.983 283.100 M102.455 291.992 C 102.458 293.066,102.534 293.459,102.624 292.866 C 102.714 292.272,102.711 291.393,102.619 290.913 C 102.526 290.432,102.453 290.918,102.455 291.992 M102.455 298.242 C 102.458 299.316,102.534 299.709,102.624 299.116 C 102.714 298.522,102.711 297.643,102.619 297.163 C 102.526 296.682,102.453 297.168,102.455 298.242 M166.313 300.659 C 165.940 300.757,165.237 300.760,164.751 300.667 C 164.265 300.573,164.570 300.493,165.430 300.489 C 166.289 300.485,166.687 300.561,166.313 300.659 M189.961 315.234 C 189.961 316.416,190.034 316.899,190.124 316.309 C 190.213 315.718,190.213 314.751,190.124 314.160 C 190.034 313.569,189.961 314.053,189.961 315.234 M189.965 319.727 C 189.967 321.016,190.040 321.496,190.127 320.794 C 190.214 320.092,190.212 319.037,190.123 318.450 C 190.034 317.863,189.963 318.438,189.965 319.727 " stroke="none" fill="#5c331c" fill-rule="evenodd"></path><path id="path1" d="M103.590 69.823 C 106.317 69.890,110.887 69.890,113.746 69.823 C 116.606 69.757,114.375 69.702,108.789 69.701 C 103.203 69.701,100.864 69.756,103.590 69.823 M123.162 69.822 C 124.837 69.895,127.474 69.895,129.022 69.821 C 130.570 69.747,129.199 69.687,125.977 69.687 C 122.754 69.688,121.488 69.749,123.162 69.822 M136.018 69.821 C 137.459 69.895,139.920 69.896,141.487 69.822 C 143.054 69.747,141.875 69.686,138.867 69.685 C 135.859 69.685,134.577 69.746,136.018 69.821 M145.508 69.795 C 146.152 69.891,146.915 70.267,147.203 70.630 C 147.683 71.235,147.715 71.225,147.590 70.508 C 147.483 69.891,147.126 69.715,145.895 69.673 C 144.796 69.635,144.682 69.671,145.508 69.795 M93.510 74.609 C 93.510 77.295,93.572 78.394,93.649 77.051 C 93.725 75.708,93.725 73.511,93.649 72.168 C 93.572 70.825,93.510 71.924,93.510 74.609 M147.356 75.781 C 147.356 76.533,147.437 76.841,147.535 76.465 C 147.633 76.089,147.633 75.474,147.535 75.098 C 147.437 74.722,147.356 75.029,147.356 75.781 M71.179 86.426 L 71.265 91.992 71.386 86.627 L 71.506 81.262 82.335 81.152 L 93.164 81.042 82.129 80.951 L 71.094 80.859 71.179 86.426 M159.071 81.149 L 167.556 81.265 167.682 86.531 L 167.808 91.798 167.791 86.426 L 167.773 81.055 159.180 81.043 L 150.586 81.032 159.071 81.149 M173.438 92.176 L 167.773 92.393 173.179 92.583 C 177.221 92.725,178.686 92.650,178.988 92.285 C 179.211 92.017,179.327 91.833,179.247 91.878 C 179.167 91.923,176.553 92.057,173.438 92.176 M63.395 92.478 C 64.854 92.553,67.139 92.552,68.473 92.476 C 69.807 92.400,68.613 92.339,65.820 92.339 C 63.027 92.340,61.936 92.402,63.395 92.478 M60.302 97.461 C 60.303 99.824,60.368 100.741,60.445 99.497 C 60.523 98.254,60.522 96.321,60.444 95.201 C 60.365 94.080,60.301 95.098,60.302 97.461 M49.870 102.995 C 49.508 103.356,49.540 147.266,49.902 147.266 C 50.063 147.266,50.195 137.246,50.195 125.000 C 50.195 112.754,50.181 102.734,50.163 102.734 C 50.145 102.734,50.013 102.852,49.870 102.995 M53.613 103.004 C 53.989 103.102,54.604 103.102,54.980 103.004 C 55.356 102.905,55.049 102.825,54.297 102.825 C 53.545 102.825,53.237 102.905,53.613 103.004 M182.329 103.011 C 182.815 103.104,183.518 103.101,183.891 103.003 C 184.265 102.905,183.867 102.829,183.008 102.833 C 182.148 102.837,181.843 102.917,182.329 103.011 M186.621 103.011 L 188.672 103.166 188.672 130.282 L 188.672 157.399 183.691 157.521 L 178.711 157.643 183.889 157.728 L 189.068 157.813 188.967 130.371 L 188.867 102.930 186.719 102.892 L 184.570 102.855 186.621 103.011 M254.773 103.418 L 265.600 103.528 265.724 108.112 L 265.848 112.695 265.932 107.910 L 266.016 103.125 254.980 103.216 L 243.945 103.307 254.773 103.418 M244.247 114.063 C 244.247 115.029,244.323 115.425,244.416 114.941 C 244.509 114.458,244.509 113.667,244.416 113.184 C 244.323 112.700,244.247 113.096,244.247 114.063 M276.172 113.477 C 276.064 113.691,276.064 116.504,276.172 119.727 C 276.279 122.949,276.455 125.146,276.563 124.609 C 276.806 123.392,276.439 112.942,276.172 113.477 M268.668 113.961 C 270.019 114.038,272.128 114.037,273.355 113.960 C 274.582 113.883,273.477 113.820,270.898 113.821 C 268.320 113.822,267.316 113.885,268.668 113.961 M292.467 126.074 L 308.177 126.181 308.302 130.376 L 308.428 134.570 308.511 130.176 L 308.594 125.781 292.676 125.874 L 276.758 125.967 292.467 126.074 M244.194 135.254 L 244.141 136.328 249.707 136.242 L 255.273 136.157 249.928 136.036 C 244.760 135.920,244.577 135.887,244.415 135.048 C 244.274 134.317,244.239 134.349,244.194 135.254 M70.313 141.400 L 70.313 146.862 60.449 146.973 L 50.586 147.084 60.645 147.175 L 70.703 147.266 70.703 141.803 L 70.703 136.340 81.543 136.230 L 92.383 136.120 81.348 136.029 L 70.313 135.938 70.313 141.400 M313.953 137.010 L 318.727 137.133 318.849 142.102 L 318.971 147.070 319.056 141.895 L 319.141 136.719 314.160 136.803 L 309.180 136.888 313.953 137.010 M92.357 146.875 C 92.357 152.354,92.412 154.595,92.479 151.855 C 92.547 149.116,92.547 144.634,92.479 141.895 C 92.412 139.155,92.357 141.396,92.357 146.875 M255.619 142.188 C 255.619 144.873,255.682 145.972,255.758 144.629 C 255.834 143.286,255.834 141.089,255.758 139.746 C 255.682 138.403,255.619 139.502,255.619 142.188 M249.609 147.266 L 244.336 147.496 249.707 147.576 C 253.081 147.626,255.078 147.511,255.078 147.266 C 255.078 147.051,255.034 146.911,254.980 146.955 C 254.927 146.999,252.510 147.139,249.609 147.266 M324.501 147.558 L 329.666 147.679 329.786 153.039 L 329.907 158.398 329.992 152.832 L 330.078 147.266 324.707 147.351 L 319.336 147.436 324.501 147.558 M300.293 157.712 C 301.851 157.786,304.399 157.786,305.957 157.712 C 307.515 157.638,306.240 157.577,303.125 157.577 C 300.010 157.577,298.735 157.638,300.293 157.712 M81.036 158.698 C 80.931 158.970,80.896 163.673,80.957 169.147 L 81.069 179.102 81.159 168.860 L 81.250 158.618 86.035 158.495 L 90.820 158.372 86.023 158.288 C 82.447 158.225,81.177 158.329,81.036 158.698 M178.125 163.856 L 178.125 169.509 172.754 169.618 L 167.383 169.727 167.274 174.892 L 167.165 180.057 161.610 180.165 L 156.055 180.273 155.946 185.437 L 155.837 190.600 151.258 190.724 L 146.680 190.848 151.465 190.932 L 156.250 191.016 156.250 185.742 L 156.250 180.469 161.914 180.469 L 167.578 180.469 167.578 175.195 L 167.578 169.922 173.047 169.922 L 178.516 169.922 178.516 164.063 C 178.516 160.840,178.428 158.203,178.320 158.203 C 178.213 158.203,178.125 160.747,178.125 163.856 M233.288 163.574 L 233.374 168.945 233.495 163.781 L 233.616 158.616 238.781 158.495 L 243.945 158.374 238.574 158.288 L 233.203 158.203 233.288 163.574 M297.420 163.477 C 297.420 166.484,297.482 167.663,297.556 166.096 C 297.630 164.529,297.630 162.068,297.555 160.627 C 297.480 159.187,297.419 160.469,297.420 163.477 M335.634 158.495 L 340.212 158.618 340.333 163.977 L 340.454 169.336 340.539 163.770 L 340.625 158.203 335.840 158.287 L 331.055 158.371 335.634 158.495 M309.132 164.453 C 309.132 166.924,309.196 167.935,309.273 166.699 C 309.351 165.464,309.351 163.442,309.273 162.207 C 309.196 160.972,309.132 161.982,309.132 164.453 M300.471 169.430 C 301.912 169.505,304.373 169.505,305.940 169.431 C 307.507 169.357,306.328 169.295,303.320 169.295 C 300.313 169.294,299.030 169.355,300.471 169.430 M222.655 170.215 C 222.655 170.376,224.281 170.461,226.269 170.404 C 232.829 170.215,233.475 170.064,228.027 169.992 C 225.073 169.954,222.656 170.054,222.655 170.215 M345.801 170.214 L 350.781 170.336 350.781 180.469 L 350.781 190.602 345.605 190.711 L 340.430 190.820 340.321 196.180 L 340.212 201.539 335.243 201.661 L 330.273 201.783 335.449 201.868 L 340.625 201.953 340.625 196.464 L 340.625 190.974 345.996 191.093 L 351.367 191.211 351.257 180.566 L 351.148 169.922 345.984 170.007 L 340.820 170.092 345.801 170.214 M69.531 207.985 C 69.531 223.119,69.663 235.582,69.824 235.682 C 69.985 235.782,70.070 223.493,70.012 208.373 L 69.906 180.884 74.699 180.761 L 79.492 180.638 74.512 180.553 L 69.531 180.469 69.531 207.985 M189.941 180.761 C 195.688 180.822,205.093 180.822,210.840 180.761 C 216.587 180.701,211.885 180.651,200.391 180.651 C 188.896 180.651,184.194 180.701,189.941 180.761 M157.898 196.973 L 157.984 202.539 158.104 197.174 L 158.225 191.810 168.468 191.699 L 178.711 191.588 168.262 191.497 L 157.813 191.406 157.898 196.973 M137.012 201.852 C 138.354 201.928,140.552 201.928,141.895 201.852 C 143.237 201.775,142.139 201.713,139.453 201.713 C 136.768 201.713,135.669 201.775,137.012 201.852 M329.688 207.028 L 329.688 212.103 308.496 212.204 L 287.305 212.305 287.294 221.973 L 287.284 231.641 287.399 222.071 L 287.514 212.500 308.796 212.500 L 330.078 212.500 330.078 207.227 C 330.078 204.326,329.990 201.953,329.883 201.953 C 329.775 201.953,329.688 204.237,329.688 207.028 M146.655 203.243 C 146.548 203.523,146.515 206.028,146.583 208.810 L 146.705 213.867 146.790 208.508 L 146.875 203.149 151.660 203.026 L 156.445 202.903 151.648 202.819 C 148.005 202.755,146.803 202.857,146.655 203.243 M123.616 229.297 C 123.616 238.428,123.668 242.163,123.730 237.598 C 123.793 233.032,123.793 225.562,123.730 220.996 C 123.668 216.431,123.616 220.166,123.616 229.297 M135.249 229.590 L 135.342 245.117 135.449 229.796 L 135.556 214.475 140.922 214.354 L 146.289 214.234 140.723 214.148 L 135.156 214.063 135.249 229.590 M134.466 231.641 C 134.466 232.393,134.546 232.700,134.644 232.324 C 134.743 231.948,134.743 231.333,134.644 230.957 C 134.546 230.581,134.466 230.889,134.466 231.641 M308.691 231.934 L 329.688 232.038 329.688 244.337 L 329.688 256.636 297.949 256.738 L 266.211 256.841 298.145 256.936 L 330.078 257.031 330.078 244.336 L 330.078 231.641 308.887 231.735 L 287.695 231.829 308.691 231.934 M197.559 235.449 C 202.124 235.511,209.595 235.511,214.160 235.449 C 218.726 235.386,214.990 235.335,205.859 235.335 C 196.729 235.335,192.993 235.386,197.559 235.449 M73.737 235.830 C 74.440 235.917,75.494 235.915,76.081 235.826 C 76.668 235.737,76.094 235.666,74.805 235.668 C 73.516 235.670,73.035 235.743,73.737 235.830 M81.045 246.289 L 81.055 256.836 86.719 256.853 L 92.383 256.870 86.823 256.745 L 81.263 256.619 81.149 246.181 L 81.035 235.742 81.045 246.289 M188.827 241.406 C 188.827 244.521,188.888 245.796,188.962 244.238 C 189.036 242.681,189.036 240.132,188.962 238.574 C 188.888 237.017,188.827 238.291,188.827 241.406 M222.203 238.574 C 222.130 239.810,222.173 241.787,222.300 242.969 C 222.473 244.592,222.544 244.043,222.593 240.723 C 222.660 236.078,222.426 234.788,222.203 238.574 M126.660 245.988 C 127.466 246.072,128.784 246.072,129.590 245.988 C 130.396 245.903,129.736 245.834,128.125 245.834 C 126.514 245.834,125.854 245.903,126.660 245.988 M233.283 251.465 L 233.203 257.031 238.379 256.952 L 243.555 256.873 238.672 256.659 L 233.789 256.445 233.576 251.172 L 233.364 245.898 233.283 251.465 M199.696 247.168 L 210.134 247.278 210.255 252.448 L 210.376 257.617 210.462 252.246 L 210.547 246.875 199.902 246.966 L 189.258 247.057 199.696 247.168 M265.711 262.391 L 265.625 268.337 260.254 268.446 L 254.883 268.555 254.774 273.906 L 254.666 279.257 252.626 279.400 L 250.586 279.543 252.832 279.615 L 255.078 279.688 255.078 274.219 L 255.078 268.750 260.364 268.750 C 266.629 268.750,266.074 269.416,265.918 262.091 L 265.797 256.445 265.711 262.391 M243.898 261.719 C 243.898 264.189,243.961 265.200,244.039 263.965 C 244.116 262.729,244.116 260.708,244.039 259.473 C 243.961 258.237,243.898 259.248,243.898 261.719 M214.453 258.240 C 215.635 258.429,217.699 258.478,219.040 258.348 L 221.478 258.113 221.584 279.642 L 221.690 301.172 221.685 279.590 L 221.680 258.008 216.992 257.952 C 213.057 257.906,212.649 257.952,214.453 258.240 M92.335 263.672 C 92.335 266.143,92.399 267.153,92.476 265.918 C 92.554 264.683,92.554 262.661,92.476 261.426 C 92.399 260.190,92.335 261.201,92.335 263.672 M103.509 268.649 L 114.049 268.763 114.164 278.229 L 114.280 287.695 114.269 278.125 L 114.258 268.555 103.613 268.545 L 92.968 268.535 103.509 268.649 M233.203 279.307 L 233.203 289.865 238.965 289.757 L 244.727 289.648 244.745 284.961 L 244.763 280.273 244.635 284.863 L 244.507 289.453 239.050 289.453 L 233.594 289.453 233.594 279.308 L 233.594 269.163 238.770 269.042 L 243.945 268.921 238.574 268.835 L 233.203 268.750 233.203 279.307 M246.777 279.579 C 247.476 279.666,248.618 279.666,249.316 279.579 C 250.015 279.493,249.443 279.422,248.047 279.422 C 246.650 279.422,246.079 279.493,246.777 279.579 M102.820 295.605 L 102.905 300.977 103.026 295.813 L 103.148 290.649 107.921 290.526 L 112.695 290.403 107.715 290.319 L 102.734 290.234 102.820 295.605 M162.012 301.464 C 165.073 301.530,170.083 301.530,173.145 301.464 C 176.206 301.398,173.701 301.344,167.578 301.344 C 161.455 301.344,158.950 301.398,162.012 301.464 M92.376 318.354 C 92.382 333.171,92.458 335.346,92.969 335.384 C 93.297 335.408,93.342 335.355,93.071 335.264 C 92.698 335.138,92.562 331.224,92.478 318.234 L 92.370 301.367 92.376 318.354 M243.750 301.948 L 265.430 302.148 265.644 306.836 L 265.858 311.523 265.937 306.543 L 266.016 301.563 244.043 301.655 L 222.070 301.748 243.750 301.948 M96.387 302.236 C 97.085 302.322,98.228 302.322,98.926 302.236 C 99.624 302.149,99.053 302.078,97.656 302.078 C 96.260 302.078,95.688 302.149,96.387 302.236 M154.492 312.500 L 152.930 312.780 154.590 312.835 C 155.503 312.866,156.250 312.715,156.250 312.500 C 156.250 312.285,156.206 312.134,156.152 312.165 C 156.099 312.195,155.352 312.346,154.492 312.500 M271.973 312.401 L 276.172 312.526 276.250 317.884 L 276.328 323.242 276.543 318.750 C 276.661 316.279,276.694 313.774,276.616 313.184 L 276.474 312.109 272.124 312.192 L 267.773 312.275 271.973 312.401 M113.672 324.190 C 113.672 334.251,113.619 335.113,112.988 335.278 C 112.474 335.412,112.522 335.467,113.184 335.502 L 114.063 335.547 114.063 324.414 C 114.063 318.291,113.975 313.281,113.867 313.281 C 113.760 313.281,113.672 318.190,113.672 324.190 M190.320 318.652 L 190.234 324.219 233.659 324.219 C 257.542 324.219,276.992 324.128,276.881 324.017 C 276.770 323.906,257.322 323.819,233.663 323.825 L 190.647 323.835 190.526 318.460 L 190.406 313.086 190.320 318.652 M100.494 335.437 C 101.087 335.526,101.966 335.524,102.447 335.431 C 102.927 335.339,102.441 335.265,101.367 335.268 C 100.293 335.271,99.900 335.347,100.494 335.437 " stroke="none" fill="#170a05" fill-rule="evenodd"></path><path id="path2" d="M93.615 70.020 C 93.715 70.181,105.768 70.313,120.401 70.313 C 135.033 70.312,146.917 70.224,146.809 70.116 C 146.489 69.796,93.417 69.700,93.615 70.020 M147.135 74.479 C 146.696 74.919,146.835 80.469,147.285 80.469 C 147.587 80.469,147.730 74.251,147.428 74.222 C 147.410 74.220,147.279 74.336,147.135 74.479 M147.791 81.342 C 148.039 81.500,152.461 81.607,157.617 81.581 C 162.773 81.555,166.641 81.477,166.211 81.407 C 164.530 81.132,147.367 81.072,147.791 81.342 M76.684 81.542 C 79.650 81.609,84.397 81.608,87.230 81.542 C 90.064 81.475,87.637 81.421,81.836 81.421 C 76.035 81.421,73.717 81.476,76.684 81.542 M178.461 92.773 C 177.996 93.500,178.041 102.580,178.507 102.116 C 178.779 101.845,178.892 100.015,178.822 97.038 C 178.761 94.478,178.598 92.559,178.461 92.773 M56.055 103.125 C 57.146 103.594,59.281 103.594,59.570 103.125 C 59.721 102.881,58.962 102.745,57.543 102.762 C 55.914 102.782,55.494 102.884,56.055 103.125 M179.594 103.011 C 180.080 103.104,180.783 103.101,181.157 103.003 C 181.530 102.905,181.133 102.829,180.273 102.833 C 179.414 102.837,179.108 102.917,179.594 103.011 M244.205 118.709 C 244.195 127.065,244.338 134.404,244.525 135.018 C 244.728 135.689,244.868 129.636,244.876 119.824 C 244.883 110.854,244.740 103.516,244.557 103.516 C 244.374 103.516,244.216 110.353,244.205 118.709 M278.418 126.454 C 279.116 126.541,280.259 126.541,280.957 126.454 C 281.655 126.368,281.084 126.297,279.688 126.297 C 278.291 126.297,277.720 126.368,278.418 126.454 M285.656 126.459 C 286.683 126.540,288.265 126.539,289.172 126.457 C 290.079 126.375,289.238 126.309,287.305 126.311 C 285.371 126.312,284.629 126.379,285.656 126.459 M296.213 126.464 C 298.534 126.533,302.225 126.532,304.416 126.463 C 306.606 126.394,304.707 126.337,300.195 126.337 C 295.684 126.338,293.891 126.394,296.213 126.464 M188.388 130.078 C 188.388 131.045,188.464 131.440,188.557 130.957 C 188.650 130.474,188.650 129.683,188.557 129.199 C 188.464 128.716,188.388 129.111,188.388 130.078 M308.326 135.907 C 308.366 136.427,308.662 136.924,308.984 137.011 C 309.372 137.115,309.420 137.059,309.127 136.846 C 308.884 136.669,308.587 136.172,308.469 135.742 C 308.300 135.126,308.269 135.161,308.326 135.907 M56.738 146.754 C 57.114 146.852,57.729 146.852,58.105 146.754 C 58.481 146.655,58.174 146.575,57.422 146.575 C 56.670 146.575,56.362 146.655,56.738 146.754 M244.207 153.125 C 244.200 156.183,244.321 157.716,244.531 157.227 C 244.951 156.249,244.951 150.531,244.531 149.219 C 244.338 148.616,244.214 150.111,244.207 153.125 M242.969 158.594 C 242.164 158.851,242.130 158.912,242.773 158.939 C 243.203 158.958,243.818 158.802,244.141 158.594 C 244.825 158.151,244.350 158.151,242.969 158.594 M330.078 158.594 C 330.835 159.083,331.250 159.083,331.250 158.594 C 331.250 158.379,330.854 158.206,330.371 158.209 C 329.660 158.214,329.604 158.288,330.078 158.594 M85.259 158.874 C 85.853 158.964,86.732 158.961,87.212 158.869 C 87.693 158.776,87.207 158.703,86.133 158.705 C 85.059 158.708,84.666 158.784,85.259 158.874 M235.059 158.869 C 235.542 158.963,236.333 158.963,236.816 158.869 C 237.300 158.776,236.904 158.700,235.938 158.700 C 234.971 158.700,234.575 158.776,235.059 158.869 M239.751 158.870 C 240.237 158.963,240.940 158.960,241.313 158.862 C 241.687 158.764,241.289 158.688,240.430 158.692 C 239.570 158.697,239.265 158.777,239.751 158.870 M332.329 158.870 C 332.815 158.963,333.518 158.960,333.891 158.862 C 334.265 158.764,333.867 158.688,333.008 158.692 C 332.148 158.697,331.843 158.777,332.329 158.870 M336.237 158.877 C 336.940 158.964,337.994 158.962,338.581 158.873 C 339.168 158.784,338.594 158.713,337.305 158.715 C 336.016 158.717,335.535 158.790,336.237 158.877 M222.559 171.320 C 222.397 171.482,222.281 173.475,222.301 175.749 C 222.329 179.042,222.412 179.621,222.707 178.596 C 223.131 177.127,223.003 170.872,222.559 171.320 M178.573 185.898 C 178.632 188.713,178.820 191.016,178.989 191.016 C 179.471 191.016,179.366 181.339,178.880 181.039 C 178.592 180.860,178.497 182.350,178.573 185.898 M145.313 196.484 C 145.313 200.964,145.236 201.563,144.661 201.563 C 144.303 201.563,144.114 201.666,144.241 201.793 C 144.368 201.921,144.843 201.907,145.295 201.763 C 146.171 201.485,146.532 191.406,145.666 191.406 C 145.472 191.406,145.313 193.691,145.313 196.484 M169.238 192.066 C 169.614 192.164,170.229 192.164,170.605 192.066 C 170.981 191.968,170.674 191.888,169.922 191.888 C 169.170 191.888,168.862 191.968,169.238 192.066 M172.363 192.066 C 172.739 192.164,173.354 192.164,173.730 192.066 C 174.106 191.968,173.799 191.888,173.047 191.888 C 172.295 191.888,171.987 191.968,172.363 192.066 M134.112 207.075 L 134.340 212.305 129.182 212.206 C 125.492 212.135,124.215 212.222,124.695 212.511 C 125.087 212.747,127.281 212.870,129.968 212.805 L 134.570 212.695 134.638 207.524 C 134.680 204.259,134.554 202.259,134.295 202.099 C 134.011 201.924,133.955 203.466,134.112 207.075 M157.031 202.734 L 156.055 203.047 157.129 203.086 C 157.720 203.107,158.203 202.949,158.203 202.734 C 158.203 202.520,158.159 202.361,158.105 202.383 C 158.052 202.404,157.568 202.562,157.031 202.734 M135.664 226.563 C 135.664 227.744,135.737 228.228,135.827 227.637 C 135.916 227.046,135.916 226.079,135.827 225.488 C 135.737 224.897,135.664 225.381,135.664 226.563 M135.645 230.273 C 135.650 231.133,135.730 231.438,135.823 230.952 C 135.917 230.467,135.913 229.763,135.815 229.390 C 135.717 229.017,135.641 229.414,135.645 230.273 M70.313 235.449 C 70.313 235.610,72.598 235.763,75.391 235.790 C 78.184 235.816,80.469 235.684,80.469 235.497 C 80.469 235.309,78.184 235.156,75.391 235.156 C 72.598 235.156,70.313 235.288,70.313 235.449 M135.683 240.625 C 135.683 242.451,135.751 243.198,135.833 242.285 C 135.915 241.372,135.915 239.878,135.833 238.965 C 135.751 238.052,135.683 238.799,135.683 240.625 M222.768 240.820 C 222.771 241.895,222.847 242.288,222.937 241.694 C 223.026 241.100,223.024 240.221,222.931 239.741 C 222.839 239.260,222.765 239.746,222.768 240.820 M222.913 245.795 C 222.664 245.953,224.658 246.082,227.344 246.082 C 230.029 246.082,232.430 245.953,232.678 245.795 C 232.926 245.637,230.932 245.508,228.246 245.508 C 225.561 245.508,223.161 245.637,222.913 245.795 M128.320 246.094 L 125.586 246.346 128.613 246.415 C 130.417 246.456,131.641 246.326,131.641 246.094 C 131.641 245.879,131.509 245.734,131.348 245.772 C 131.187 245.810,129.824 245.955,128.320 246.094 M132.227 246.094 C 132.090 246.314,132.410 246.484,132.962 246.484 C 133.499 246.484,134.047 246.309,134.180 246.094 C 134.316 245.873,133.996 245.703,133.445 245.703 C 132.907 245.703,132.359 245.879,132.227 246.094 M92.286 258.008 C 92.290 258.867,92.370 259.173,92.464 258.687 C 92.557 258.201,92.554 257.498,92.456 257.124 C 92.358 256.751,92.282 257.148,92.286 258.008 M210.156 257.783 C 210.156 258.347,211.283 258.596,213.606 258.546 L 215.820 258.498 213.477 258.158 C 212.188 257.972,210.913 257.735,210.645 257.632 C 210.376 257.530,210.156 257.598,210.156 257.783 M220.117 258.203 L 218.555 258.483 219.996 258.538 C 220.789 258.569,221.547 258.418,221.680 258.203 C 221.812 257.988,221.867 257.837,221.800 257.868 C 221.734 257.898,220.977 258.049,220.117 258.203 M265.355 263.867 C 265.358 265.156,265.431 265.637,265.517 264.934 C 265.604 264.232,265.603 263.178,265.513 262.591 C 265.424 262.004,265.353 262.578,265.355 263.867 M243.849 267.383 C 243.853 268.242,243.933 268.548,244.026 268.062 C 244.120 267.576,244.116 266.873,244.018 266.499 C 243.921 266.126,243.844 266.523,243.849 267.383 M113.281 290.234 L 112.305 290.547 113.379 290.586 C 113.970 290.607,114.453 290.449,114.453 290.234 C 114.453 290.020,114.409 289.861,114.355 289.883 C 114.302 289.904,113.818 290.062,113.281 290.234 M178.555 307.031 C 178.537 311.017,178.655 312.886,178.901 312.500 C 179.352 311.791,179.355 303.541,178.904 302.043 C 178.702 301.372,178.573 303.219,178.555 307.031 M221.713 301.703 C 221.937 302.288,223.848 302.336,243.694 302.249 L 265.430 302.155 243.981 302.051 C 228.720 301.977,222.379 301.819,222.000 301.504 C 221.578 301.154,221.518 301.196,221.713 301.703 M93.750 301.855 C 93.750 302.017,95.669 302.148,98.014 302.148 C 100.360 302.148,102.410 302.017,102.572 301.855 C 102.733 301.694,100.814 301.563,98.307 301.563 C 95.801 301.563,93.750 301.694,93.750 301.855 M155.865 306.934 C 155.869 309.673,156.042 312.178,156.250 312.500 C 156.504 312.894,156.631 311.258,156.635 307.520 C 156.638 304.065,156.492 301.953,156.250 301.953 C 156.010 301.953,155.862 303.870,155.865 306.934 M265.631 311.816 C 265.624 312.587,267.346 312.768,268.359 312.104 C 268.773 311.833,268.561 311.794,267.636 311.971 C 266.721 312.147,266.223 312.059,265.982 311.678 C 265.706 311.242,265.636 311.269,265.631 311.816 M114.746 312.389 C 114.155 312.479,113.672 312.726,113.672 312.940 C 113.672 313.153,113.828 313.231,114.019 313.113 C 114.209 312.995,122.954 312.883,133.452 312.863 C 143.950 312.843,153.242 312.686,154.102 312.513 C 155.658 312.201,116.799 312.078,114.746 312.389 M181.152 312.776 C 181.636 312.869,182.427 312.869,182.910 312.776 C 183.394 312.683,182.998 312.606,182.031 312.606 C 181.064 312.606,180.669 312.683,181.152 312.776 M113.388 317.188 C 113.388 318.154,113.464 318.550,113.557 318.066 C 113.650 317.583,113.650 316.792,113.557 316.309 C 113.464 315.825,113.388 316.221,113.388 317.188 M92.436 335.070 C 92.333 335.237,96.796 335.410,102.355 335.454 C 108.642 335.503,112.552 335.388,112.700 335.149 C 112.853 334.902,109.332 334.766,102.780 334.766 C 97.195 334.766,92.540 334.903,92.436 335.070 " stroke="none" fill="#341a0f" fill-rule="evenodd"></path><path id="path3" d="M93.835 75.488 L 93.920 80.664 94.042 75.686 L 94.164 70.709 120.617 70.605 L 147.070 70.502 120.410 70.407 L 93.750 70.313 93.835 75.488 M167.480 80.727 C 167.749 80.836,167.986 81.393,168.008 81.966 L 168.047 83.008 168.328 82.031 C 168.602 81.079,168.215 80.453,167.383 80.506 C 167.168 80.519,167.212 80.619,167.480 80.727 M77.270 81.933 C 80.344 81.999,85.266 81.999,88.207 81.932 C 91.148 81.866,88.633 81.812,82.617 81.812 C 76.602 81.813,74.195 81.867,77.270 81.933 M157.117 81.933 L 166.772 82.045 166.896 86.628 L 167.020 91.211 167.104 86.426 L 167.188 81.641 157.324 81.731 L 147.461 81.822 157.117 81.933 M168.110 87.891 C 168.110 89.932,168.175 90.767,168.256 89.746 C 168.336 88.726,168.336 87.056,168.256 86.035 C 168.175 85.015,168.110 85.850,168.110 87.891 M60.547 94.531 C 60.547 95.677,60.619 96.541,60.707 96.452 C 61.004 96.149,61.103 93.004,60.824 92.725 C 60.672 92.573,60.547 93.385,60.547 94.531 M63.965 92.867 C 65.308 92.944,67.505 92.944,68.848 92.867 C 70.190 92.791,69.092 92.729,66.406 92.729 C 63.721 92.729,62.622 92.791,63.965 92.867 M167.671 92.802 C 167.794 92.924,170.102 93.032,172.801 93.041 L 177.706 93.058 177.835 96.627 L 177.963 100.195 178.044 96.387 L 178.125 92.578 172.786 92.578 C 169.850 92.578,167.548 92.679,167.671 92.802 M60.547 100.739 C 60.547 101.862,60.684 102.695,60.853 102.592 C 61.186 102.385,61.108 99.259,60.761 98.912 C 60.643 98.794,60.547 99.616,60.547 100.739 M59.766 101.534 C 59.766 101.948,59.458 102.367,59.082 102.465 C 58.568 102.600,58.616 102.655,59.277 102.689 C 59.967 102.725,60.156 102.524,60.156 101.758 C 60.156 101.221,60.068 100.781,59.961 100.781 C 59.854 100.781,59.766 101.120,59.766 101.534 M51.660 102.632 C 52.896 102.710,54.917 102.710,56.152 102.632 C 57.388 102.555,56.377 102.491,53.906 102.491 C 51.436 102.491,50.425 102.555,51.660 102.632 M179.985 102.620 C 180.471 102.713,181.174 102.710,181.548 102.612 C 181.921 102.514,181.523 102.438,180.664 102.442 C 179.805 102.447,179.499 102.527,179.985 102.620 M185.456 102.627 C 186.158 102.714,187.213 102.712,187.800 102.623 C 188.387 102.534,187.813 102.463,186.523 102.465 C 185.234 102.467,184.754 102.540,185.456 102.627 M255.251 103.024 L 265.971 103.137 266.125 104.596 L 266.278 106.055 266.244 104.492 L 266.211 102.930 255.371 102.920 L 244.531 102.911 255.251 103.024 M243.841 104.297 C 243.841 105.049,243.921 105.356,244.019 104.980 C 244.118 104.604,244.118 103.989,244.019 103.613 C 243.921 103.237,243.841 103.545,243.841 104.297 M52.652 103.805 C 54.003 103.882,56.113 103.881,57.340 103.804 C 58.566 103.727,57.461 103.664,54.883 103.665 C 52.305 103.666,51.301 103.729,52.652 103.805 M184.470 103.806 L 187.885 103.937 187.988 128.628 L 188.092 153.320 188.187 128.418 L 188.281 103.516 184.668 103.596 L 181.055 103.676 184.470 103.806 M244.922 119.922 L 244.922 135.938 246.940 135.938 C 249.274 135.938,249.343 135.685,247.070 135.465 L 245.508 135.314 245.406 119.806 L 245.304 104.297 255.049 104.297 L 264.794 104.297 264.952 105.566 C 265.107 106.816,265.110 106.813,265.172 105.371 L 265.234 103.906 255.078 103.906 L 244.922 103.906 244.922 119.922 M243.862 107.617 C 243.865 108.691,243.941 109.084,244.030 108.491 C 244.120 107.897,244.118 107.018,244.025 106.538 C 243.932 106.057,243.859 106.543,243.862 107.617 M49.330 108.008 C 49.333 109.082,49.409 109.475,49.499 108.881 C 49.589 108.288,49.586 107.409,49.494 106.928 C 49.401 106.448,49.328 106.934,49.330 108.008 M243.878 112.305 C 243.880 113.809,243.951 114.376,244.035 113.566 C 244.120 112.755,244.118 111.525,244.032 110.831 C 243.946 110.138,243.876 110.801,243.878 112.305 M49.309 111.328 C 49.309 112.080,49.390 112.388,49.488 112.012 C 49.586 111.636,49.586 111.021,49.488 110.645 C 49.390 110.269,49.309 110.576,49.309 111.328 M276.653 114.844 C 276.653 115.596,276.734 115.903,276.832 115.527 C 276.930 115.151,276.930 114.536,276.832 114.160 C 276.734 113.784,276.653 114.092,276.653 114.844 M275.540 120.117 C 275.541 122.695,275.604 123.699,275.680 122.348 C 275.757 120.997,275.756 118.887,275.679 117.660 C 275.602 116.434,275.539 117.539,275.540 120.117 M276.688 121.094 C 276.688 122.490,276.758 123.062,276.845 122.363 C 276.932 121.665,276.932 120.522,276.845 119.824 C 276.758 119.126,276.688 119.697,276.688 121.094 M243.862 123.242 C 243.865 124.316,243.941 124.709,244.030 124.116 C 244.120 123.522,244.118 122.643,244.025 122.163 C 243.932 121.682,243.859 122.168,243.862 123.242 M243.871 127.539 C 243.873 128.828,243.946 129.308,244.033 128.606 C 244.120 127.904,244.118 126.850,244.029 126.263 C 243.940 125.676,243.869 126.250,243.871 127.539 M308.854 126.042 C 308.711 126.185,308.594 128.646,308.594 131.510 L 308.594 136.719 313.856 136.719 L 319.119 136.719 319.244 141.993 L 319.370 147.267 319.353 141.895 L 319.336 136.523 314.139 136.414 L 308.942 136.305 309.061 131.043 C 309.126 128.148,309.165 125.780,309.147 125.781 C 309.129 125.781,308.997 125.898,308.854 126.042 M291.881 126.855 L 307.396 126.962 307.508 131.157 L 307.620 135.352 307.814 130.956 L 308.008 126.561 292.188 126.655 L 276.367 126.749 291.881 126.855 M70.937 135.485 C 70.825 135.666,71.639 135.847,72.746 135.886 C 73.853 135.925,74.682 135.889,74.587 135.806 C 74.182 135.453,71.123 135.183,70.937 135.485 M75.000 135.646 C 75.000 135.808,76.318 135.920,77.930 135.896 C 79.541 135.872,80.859 135.739,80.859 135.602 C 80.859 135.464,79.541 135.352,77.930 135.352 C 76.319 135.352,75.000 135.484,75.000 135.646 M81.938 135.433 C 82.424 135.526,83.127 135.522,83.501 135.425 C 83.874 135.327,83.477 135.250,82.617 135.255 C 81.758 135.259,81.452 135.339,81.938 135.433 M86.914 135.547 C 86.418 135.724,86.946 135.845,88.357 135.879 C 89.581 135.909,90.661 135.802,90.758 135.642 C 90.989 135.263,87.924 135.187,86.914 135.547 M244.092 136.437 C 244.260 136.605,246.845 136.692,249.836 136.631 L 255.273 136.521 249.530 136.327 C 246.371 136.220,243.924 136.270,244.092 136.437 M70.626 141.956 C 70.561 145.051,70.640 147.501,70.801 147.401 C 70.962 147.301,71.094 145.033,71.094 142.360 L 71.094 137.500 72.168 137.454 L 73.242 137.408 72.070 137.109 C 71.426 136.945,75.347 136.790,80.785 136.765 C 87.288 136.735,90.588 136.852,90.430 137.109 C 90.297 137.324,90.444 137.500,90.755 137.500 C 91.067 137.500,91.424 137.236,91.548 136.914 C 91.744 136.402,90.444 136.328,81.258 136.328 L 70.743 136.328 70.626 141.956 M92.663 146.895 L 92.748 157.617 92.956 147.266 C 93.070 141.572,93.032 136.747,92.871 136.543 C 92.710 136.339,92.616 140.997,92.663 146.895 M73.926 137.379 C 74.302 137.477,74.917 137.477,75.293 137.379 C 75.669 137.280,75.361 137.200,74.609 137.200 C 73.857 137.200,73.550 137.280,73.926 137.379 M82.520 137.379 C 82.896 137.477,83.511 137.477,83.887 137.379 C 84.263 137.280,83.955 137.200,83.203 137.200 C 82.451 137.200,82.144 137.280,82.520 137.379 M255.993 140.430 C 255.995 142.148,256.063 142.803,256.146 141.884 C 256.228 140.965,256.227 139.559,256.143 138.759 C 256.059 137.959,255.992 138.711,255.993 140.430 M318.119 142.188 C 318.119 144.873,318.182 145.972,318.258 144.629 C 318.334 143.286,318.334 141.089,318.258 139.746 C 318.182 138.403,318.119 139.502,318.119 142.188 M69.648 141.797 C 69.648 142.979,69.722 143.462,69.811 142.871 C 69.901 142.280,69.901 141.313,69.811 140.723 C 69.722 140.132,69.648 140.615,69.648 141.797 M50.453 145.020 L 50.391 146.484 60.449 146.394 L 70.508 146.303 60.669 146.192 L 50.830 146.080 50.673 144.818 C 50.519 143.582,50.514 143.587,50.453 145.020 M255.169 146.094 C 255.169 146.846,255.249 147.153,255.347 146.777 C 255.446 146.401,255.446 145.786,255.347 145.410 C 255.249 145.034,255.169 145.342,255.169 146.094 M248.145 147.164 C 249.380 147.241,251.401 147.241,252.637 147.164 C 253.872 147.086,252.861 147.023,250.391 147.023 C 247.920 147.023,246.909 147.086,248.145 147.164 M330.234 152.539 C 330.235 155.762,330.295 157.028,330.369 155.353 C 330.442 153.678,330.442 151.042,330.368 149.494 C 330.294 147.946,330.234 149.316,330.234 152.539 M53.242 147.557 C 55.132 147.629,58.121 147.628,59.882 147.556 C 61.644 147.484,60.098 147.425,56.445 147.425 C 52.793 147.426,51.351 147.485,53.242 147.557 M243.867 149.609 C 243.867 150.791,243.940 151.274,244.030 150.684 C 244.119 150.093,244.119 149.126,244.030 148.535 C 243.940 147.944,243.867 148.428,243.867 149.609 M245.007 153.418 L 245.092 158.789 245.214 153.638 L 245.335 148.487 246.398 148.326 C 247.374 148.177,247.357 148.159,246.191 148.105 L 244.922 148.047 245.007 153.418 M249.522 148.333 C 250.441 148.416,251.847 148.415,252.647 148.331 C 253.447 148.247,252.695 148.179,250.977 148.181 C 249.258 148.182,248.603 148.251,249.522 148.333 M328.592 148.312 C 328.976 148.413,329.163 148.722,329.038 149.048 C 328.920 149.357,329.017 149.609,329.255 149.609 C 329.493 149.609,329.688 149.258,329.688 148.828 C 329.688 148.265,329.442 148.060,328.809 148.092 C 328.182 148.124,328.120 148.188,328.592 148.312 M189.161 151.758 C 189.165 152.617,189.245 152.923,189.339 152.437 C 189.432 151.951,189.429 151.248,189.331 150.874 C 189.233 150.501,189.157 150.898,189.161 151.758 M329.215 154.980 C 329.126 156.001,329.181 157.275,329.337 157.813 C 329.523 158.453,329.632 157.814,329.654 155.957 C 329.692 152.740,329.455 152.212,329.215 154.980 M189.625 156.424 C 190.303 156.966,190.201 157.211,189.355 157.078 C 189.194 157.052,189.063 157.207,189.063 157.422 C 189.063 157.637,188.315 157.841,187.402 157.875 C 185.951 157.930,185.903 157.957,187.019 158.096 C 187.721 158.183,188.196 158.416,188.073 158.615 C 187.950 158.813,188.467 158.582,189.221 158.101 C 190.842 157.067,190.915 156.809,189.746 156.242 C 188.902 155.833,188.897 155.840,189.625 156.424 M180.753 156.923 C 181.446 157.009,182.677 157.010,183.487 156.926 C 184.298 156.841,183.730 156.771,182.227 156.769 C 180.723 156.767,180.060 156.836,180.753 156.923 M297.905 157.117 C 298.145 157.507,299.896 157.516,300.135 157.129 C 300.234 156.968,299.731 156.831,299.016 156.824 C 298.301 156.818,297.801 156.950,297.905 157.117 M178.514 163.946 C 178.408 167.427,178.457 170.139,178.624 169.971 C 178.791 169.803,178.878 166.955,178.818 163.642 L 178.709 157.617 178.514 163.946 M180.078 158.052 C 182.415 158.346,185.157 158.375,185.156 158.105 C 185.156 157.944,183.794 157.839,182.129 157.871 C 180.464 157.903,179.541 157.985,180.078 158.052 M302.229 158.104 C 306.144 158.205,306.960 158.326,306.786 158.779 C 306.641 159.156,306.833 159.312,307.388 159.270 C 308.258 159.205,308.533 158.612,307.715 158.566 C 307.446 158.551,307.578 158.388,308.008 158.203 C 308.484 157.999,306.577 157.890,303.125 157.924 L 297.461 157.981 302.229 158.104 M232.934 160.352 C 232.936 161.641,233.009 162.121,233.096 161.419 C 233.183 160.717,233.181 159.662,233.092 159.075 C 233.002 158.488,232.931 159.063,232.934 160.352 M309.530 163.672 C 309.530 166.787,309.591 168.062,309.665 166.504 C 309.739 164.946,309.739 162.397,309.665 160.840 C 309.591 159.282,309.530 160.557,309.530 163.672 M88.188 159.261 C 88.674 159.354,89.377 159.351,89.751 159.253 C 90.124 159.155,89.727 159.079,88.867 159.083 C 88.008 159.087,87.702 159.167,88.188 159.261 M234.070 164.551 L 234.156 170.117 234.276 164.768 L 234.397 159.419 236.046 159.270 L 237.695 159.121 235.840 159.053 L 233.984 158.984 234.070 164.551 M238.379 159.254 C 238.755 159.352,239.370 159.352,239.746 159.254 C 240.122 159.155,239.814 159.075,239.063 159.075 C 238.311 159.075,238.003 159.155,238.379 159.254 M241.509 159.265 C 242.103 159.354,242.982 159.352,243.462 159.259 C 243.943 159.167,243.457 159.093,242.383 159.096 C 241.309 159.099,240.916 159.175,241.509 159.265 M331.159 159.267 C 331.861 159.354,332.916 159.353,333.503 159.263 C 334.090 159.174,333.516 159.103,332.227 159.105 C 330.938 159.108,330.457 159.181,331.159 159.267 M335.454 159.261 C 335.940 159.354,336.643 159.351,337.016 159.253 C 337.390 159.155,336.992 159.079,336.133 159.083 C 335.273 159.087,334.968 159.167,335.454 159.261 M338.379 159.254 C 338.755 159.352,339.370 159.352,339.746 159.254 C 340.122 159.155,339.814 159.075,339.063 159.075 C 338.311 159.075,338.003 159.155,338.379 159.254 M232.946 165.820 C 232.948 167.539,233.017 168.194,233.099 167.275 C 233.182 166.356,233.180 164.950,233.096 164.150 C 233.013 163.350,232.945 164.102,232.946 165.820 M296.981 167.188 C 296.981 168.154,297.058 168.550,297.151 168.066 C 297.244 167.583,297.244 166.792,297.151 166.309 C 297.058 165.825,296.981 166.221,296.981 167.188 M169.050 169.033 C 169.752 169.120,170.807 169.118,171.394 169.029 C 171.981 168.940,171.406 168.869,170.117 168.871 C 168.828 168.873,168.348 168.946,169.050 169.033 M175.688 169.026 C 176.174 169.120,176.877 169.116,177.251 169.018 C 177.624 168.921,177.227 168.844,176.367 168.849 C 175.508 168.853,175.202 168.933,175.688 169.026 M304.597 169.033 C 305.299 169.120,306.354 169.118,306.941 169.029 C 307.528 168.940,306.953 168.869,305.664 168.871 C 304.375 168.873,303.895 168.946,304.597 169.033 M166.564 170.074 C 166.450 170.372,166.411 172.563,166.479 174.943 C 166.594 179.008,166.554 179.279,165.820 179.425 C 165.203 179.548,165.245 179.592,166.016 179.634 L 166.992 179.687 166.992 174.609 C 166.992 169.516,166.950 169.068,166.564 170.074 M167.584 171.387 C 167.588 172.320,167.708 172.665,167.916 172.338 C 168.217 171.863,168.066 169.922,167.728 169.922 C 167.646 169.922,167.581 170.581,167.584 171.387 M300.293 170.212 C 301.851 170.286,304.399 170.286,305.957 170.212 C 307.515 170.138,306.240 170.077,303.125 170.077 C 300.010 170.077,298.735 170.138,300.293 170.212 M344.434 170.979 C 344.917 171.072,345.708 171.072,346.191 170.979 C 346.675 170.886,346.279 170.810,345.313 170.810 C 344.346 170.810,343.950 170.886,344.434 170.979 M350.042 173.340 C 350.194 174.790,350.342 179.220,350.370 183.185 C 350.397 187.150,350.501 190.475,350.601 190.574 C 350.700 190.674,350.781 186.243,350.781 180.729 C 350.781 172.756,350.677 170.703,350.273 170.703 C 349.878 170.703,349.826 171.293,350.042 173.340 M223.145 173.242 C 223.150 174.102,223.230 174.407,223.323 173.921 C 223.417 173.435,223.413 172.732,223.315 172.359 C 223.217 171.985,223.141 172.383,223.145 173.242 M167.578 176.758 L 167.578 180.469 164.941 180.530 C 162.344 180.591,162.334 180.595,164.258 180.823 C 168.012 181.268,167.969 181.314,167.969 176.908 C 167.969 174.784,167.881 173.047,167.773 173.047 C 167.666 173.047,167.578 174.717,167.578 176.758 M160.059 179.573 C 160.542 179.666,161.333 179.666,161.816 179.573 C 162.300 179.479,161.904 179.403,160.938 179.403 C 159.971 179.403,159.575 179.479,160.059 179.573 M156.335 185.633 L 156.250 190.993 151.074 191.114 L 145.898 191.236 151.086 191.321 C 157.220 191.422,156.704 191.989,156.542 185.331 L 156.420 180.273 156.335 185.633 M159.766 180.620 C 159.766 180.703,160.284 180.847,160.917 180.940 C 161.550 181.033,161.979 180.965,161.870 180.789 C 161.677 180.476,159.766 180.322,159.766 180.620 M179.382 186.230 L 179.467 191.602 179.589 186.452 C 179.694 181.971,179.797 181.280,180.382 181.126 C 180.875 180.997,180.819 180.938,180.176 180.905 C 179.301 180.860,179.297 180.884,179.382 186.230 M188.770 181.129 C 189.146 181.227,189.761 181.227,190.137 181.129 C 190.513 181.030,190.205 180.950,189.453 180.950 C 188.701 180.950,188.394 181.030,188.770 181.129 M70.407 208.105 L 70.313 235.156 75.260 235.156 C 77.982 235.156,80.128 235.076,80.030 234.977 C 79.931 234.879,77.794 234.772,75.280 234.740 L 70.708 234.682 70.605 207.868 L 70.502 181.055 70.407 208.105 M155.407 188.124 C 155.334 189.326,155.405 190.391,155.566 190.491 C 155.728 190.590,155.859 189.606,155.859 188.304 C 155.859 185.333,155.585 185.223,155.407 188.124 M69.074 189.453 C 69.156 190.313,69.292 191.016,69.377 191.016 C 69.462 191.016,69.531 190.313,69.531 189.453 C 69.531 188.594,69.395 187.891,69.228 187.891 C 69.061 187.891,68.992 188.594,69.074 189.453 M347.559 190.119 C 348.042 190.213,348.833 190.213,349.316 190.119 C 349.800 190.026,349.404 189.950,348.438 189.950 C 347.471 189.950,347.075 190.026,347.559 190.119 M145.056 193.555 C 145.057 195.273,145.126 195.928,145.208 195.009 C 145.291 194.090,145.290 192.684,145.206 191.884 C 145.122 191.084,145.054 191.836,145.056 193.555 M339.950 192.188 C 339.950 193.154,340.026 193.550,340.119 193.066 C 340.213 192.583,340.213 191.792,340.119 191.309 C 340.026 190.825,339.950 191.221,339.950 192.188 M340.624 191.309 C 340.624 191.470,342.250 191.555,344.237 191.497 C 350.798 191.309,351.444 191.157,345.996 191.086 C 343.042 191.047,340.625 191.147,340.624 191.309 M157.422 193.187 C 157.422 194.275,157.270 194.874,157.031 194.727 C 156.816 194.594,156.641 194.671,156.641 194.899 C 156.641 195.126,156.816 195.313,157.031 195.313 C 157.259 195.313,157.422 196.615,157.422 198.438 C 157.422 200.674,157.283 201.564,156.934 201.568 C 156.584 201.573,156.601 201.673,156.990 201.920 C 157.428 202.197,157.390 202.302,156.795 202.454 C 156.168 202.615,156.189 202.651,156.934 202.689 C 157.807 202.734,157.813 202.697,157.813 197.070 C 157.813 193.955,157.725 191.406,157.617 191.406 C 157.510 191.406,157.422 192.208,157.422 193.187 M164.160 192.479 C 166.899 192.547,171.382 192.547,174.121 192.479 C 176.860 192.412,174.619 192.357,169.141 192.357 C 163.662 192.357,161.421 192.412,164.160 192.479 M158.684 194.141 C 158.684 194.893,158.765 195.200,158.863 194.824 C 158.961 194.448,158.961 193.833,158.863 193.457 C 158.765 193.081,158.684 193.389,158.684 194.141 M145.028 198.438 C 145.028 199.404,145.104 199.800,145.198 199.316 C 145.291 198.833,145.291 198.042,145.198 197.559 C 145.104 197.075,145.028 197.471,145.028 198.438 M340.625 200.586 L 340.625 201.953 335.352 201.953 L 330.078 201.953 330.078 207.194 C 330.078 210.384,329.921 212.513,329.678 212.633 C 329.458 212.743,329.501 212.787,329.775 212.732 C 330.142 212.658,330.302 211.273,330.382 207.488 L 330.491 202.344 335.754 202.344 L 341.016 202.344 341.016 200.781 C 341.016 199.922,340.928 199.219,340.820 199.219 C 340.713 199.219,340.625 199.834,340.625 200.586 M339.702 200.588 C 339.515 201.074,338.669 201.159,334.814 201.076 C 332.250 201.021,330.234 201.108,330.333 201.270 C 330.818 202.052,340.234 201.588,340.234 200.781 C 340.234 199.853,340.014 199.773,339.702 200.588 M137.402 201.461 C 138.745 201.537,140.942 201.537,142.285 201.461 C 143.628 201.385,142.529 201.322,139.844 201.322 C 137.158 201.322,136.060 201.385,137.402 201.461 M329.264 203.223 C 329.246 204.351,329.202 206.636,329.166 208.301 L 329.102 211.328 308.301 211.328 C 296.860 211.328,287.500 211.460,287.500 211.621 C 287.500 211.782,296.948 211.879,308.496 211.836 L 329.492 211.759 329.585 206.465 C 329.636 203.554,329.592 201.172,329.487 201.172 C 329.383 201.172,329.282 202.095,329.264 203.223 M133.743 206.445 C 133.744 209.023,133.807 210.027,133.883 208.676 C 133.960 207.325,133.959 205.216,133.882 203.989 C 133.805 202.762,133.742 203.867,133.743 206.445 M137.027 202.243 C 138.378 202.319,140.488 202.319,141.715 202.241 C 142.941 202.164,141.836 202.101,139.258 202.102 C 136.680 202.103,135.676 202.166,137.027 202.243 M145.204 203.015 C 146.044 203.170,146.077 203.350,146.197 208.521 L 146.321 213.867 146.305 208.398 L 146.289 202.930 145.313 202.892 C 144.485 202.860,144.468 202.879,145.204 203.015 M146.960 208.691 L 147.045 213.867 147.167 208.910 L 147.289 203.952 148.742 203.799 L 150.195 203.647 148.535 203.581 L 146.875 203.516 146.960 208.691 M130.664 211.719 L 127.539 211.966 130.762 212.038 C 132.697 212.081,133.984 211.953,133.984 211.719 C 133.984 211.504,133.940 211.360,133.887 211.400 C 133.833 211.439,132.383 211.583,130.664 211.719 M68.841 212.891 C 68.841 213.643,68.921 213.950,69.019 213.574 C 69.118 213.198,69.118 212.583,69.019 212.207 C 68.921 211.831,68.841 212.139,68.841 212.891 M286.497 221.875 C 286.497 227.139,286.552 229.292,286.620 226.660 C 286.688 224.028,286.688 219.722,286.620 217.090 C 286.552 214.458,286.497 216.611,286.497 221.875 M134.703 214.551 C 134.623 214.819,134.664 216.006,134.793 217.188 L 135.029 219.336 135.093 216.699 C 135.153 214.190,135.024 213.477,134.703 214.551 M122.834 230.078 C 122.834 238.564,122.886 242.036,122.949 237.793 C 123.012 233.550,123.012 226.606,122.949 222.363 C 122.886 218.120,122.834 221.592,122.834 230.078 M136.115 230.078 C 136.115 238.564,136.167 242.036,136.230 237.793 C 136.293 233.550,136.293 226.606,136.230 222.363 C 136.167 218.120,136.115 221.592,136.115 230.078 M139.746 215.133 C 141.089 215.209,143.286 215.209,144.629 215.133 C 145.972 215.057,144.873 214.994,142.188 214.994 C 139.502 214.994,138.403 215.057,139.746 215.133 M287.589 223.340 L 287.500 231.641 307.910 231.547 L 328.320 231.452 308.113 231.348 L 287.906 231.243 287.793 223.141 L 287.679 215.039 287.589 223.340 M134.856 220.703 C 134.856 221.455,134.937 221.763,135.035 221.387 C 135.133 221.011,135.133 220.396,135.035 220.020 C 134.937 219.644,134.856 219.951,134.856 220.703 M330.170 244.010 C 330.100 253.939,329.964 257.012,329.590 257.163 C 329.207 257.317,329.210 257.367,329.602 257.391 C 330.448 257.443,330.483 256.825,330.371 243.747 L 330.262 231.055 330.170 244.010 M308.424 232.807 L 329.154 233.008 329.256 244.431 L 329.358 255.855 297.589 255.957 L 265.820 256.059 297.754 256.155 L 329.688 256.250 329.688 244.336 L 329.688 232.422 308.691 232.514 L 287.695 232.607 308.424 232.807 M123.949 236.523 C 123.951 237.812,124.024 238.293,124.111 237.591 C 124.198 236.889,124.196 235.834,124.107 235.247 C 124.018 234.660,123.947 235.234,123.949 236.523 M197.168 235.058 C 201.733 235.121,209.204 235.121,213.770 235.058 C 218.335 234.996,214.600 234.945,205.469 234.945 C 196.338 234.945,192.603 234.996,197.168 235.058 M78.602 236.274 C 78.242 236.497,78.376 236.708,79.083 237.030 C 79.906 237.405,80.122 237.366,80.431 236.790 C 80.838 236.029,79.572 235.672,78.602 236.274 M222.000 238.281 C 222.000 239.678,222.071 240.249,222.158 239.551 C 222.244 238.853,222.244 237.710,222.158 237.012 C 222.071 236.313,222.000 236.885,222.000 238.281 M189.205 240.039 C 189.206 242.188,189.272 243.017,189.351 241.881 C 189.430 240.746,189.429 238.988,189.349 237.975 C 189.269 236.962,189.204 237.891,189.205 240.039 M223.145 238.867 C 223.150 239.727,223.230 240.032,223.323 239.546 C 223.417 239.060,223.413 238.357,223.315 237.984 C 223.217 237.610,223.141 238.008,223.145 238.867 M188.040 242.383 C 188.041 244.961,188.104 245.965,188.180 244.614 C 188.257 243.262,188.256 241.153,188.179 239.926 C 188.102 238.699,188.039 239.805,188.040 242.383 M123.919 241.406 C 123.919 242.158,123.999 242.466,124.097 242.090 C 124.196 241.714,124.196 241.099,124.097 240.723 C 123.999 240.347,123.919 240.654,123.919 241.406 M221.987 243.164 C 221.990 244.238,222.066 244.631,222.155 244.038 C 222.245 243.444,222.243 242.565,222.150 242.084 C 222.057 241.604,221.984 242.090,221.987 243.164 M223.092 244.434 C 223.047 245.306,223.086 245.312,228.027 245.228 L 233.008 245.144 228.249 245.021 C 224.140 244.915,223.466 244.807,223.314 244.226 C 223.185 243.735,223.125 243.791,223.092 244.434 M232.924 247.852 C 232.927 248.926,233.003 249.319,233.093 248.725 C 233.183 248.131,233.180 247.252,233.087 246.772 C 232.995 246.292,232.921 246.777,232.924 247.852 M126.090 246.774 C 127.441 246.850,129.550 246.850,130.777 246.773 C 132.004 246.695,130.898 246.633,128.320 246.634 C 125.742 246.634,124.738 246.697,126.090 246.774 M199.121 247.949 L 209.375 248.060 209.375 253.131 C 209.375 255.921,209.507 258.203,209.668 258.204 C 209.829 258.204,209.907 255.831,209.842 252.930 L 209.723 247.656 199.295 247.747 L 188.867 247.838 199.121 247.949 M234.123 252.930 C 234.122 254.863,234.188 255.704,234.270 254.797 C 234.352 253.890,234.353 252.308,234.272 251.281 C 234.191 250.254,234.124 250.996,234.123 252.930 M81.719 253.027 L 81.641 256.250 86.230 256.167 L 90.820 256.083 86.442 255.959 L 82.064 255.834 81.931 252.819 L 81.798 249.805 81.719 253.027 M232.919 255.469 C 232.919 256.436,232.995 256.831,233.088 256.348 C 233.181 255.864,233.181 255.073,233.088 254.590 C 232.995 254.106,232.919 254.502,232.919 255.469 M235.449 256.135 C 235.933 256.228,236.724 256.228,237.207 256.135 C 237.690 256.042,237.295 255.966,236.328 255.966 C 235.361 255.966,234.966 256.042,235.449 256.135 M296.973 257.301 C 297.349 257.399,297.964 257.399,298.340 257.301 C 298.716 257.202,298.408 257.122,297.656 257.122 C 296.904 257.122,296.597 257.202,296.973 257.301 M300.098 257.301 C 300.474 257.399,301.089 257.399,301.465 257.301 C 301.841 257.202,301.533 257.122,300.781 257.122 C 300.029 257.122,299.722 257.202,300.098 257.301 M303.032 257.308 C 303.518 257.401,304.221 257.397,304.594 257.300 C 304.968 257.202,304.570 257.125,303.711 257.130 C 302.852 257.134,302.546 257.214,303.032 257.308 M312.800 257.314 C 313.502 257.401,314.557 257.399,315.144 257.310 C 315.731 257.221,315.156 257.150,313.867 257.152 C 312.578 257.154,312.098 257.227,312.800 257.314 M92.604 262.665 C 92.592 268.695,92.341 268.293,95.898 267.958 L 98.633 267.701 95.838 267.640 L 93.043 267.578 93.106 262.660 C 93.141 259.954,93.044 257.664,92.892 257.570 C 92.740 257.476,92.610 259.769,92.604 262.665 M222.058 279.492 C 222.058 291.738,222.107 296.692,222.168 290.500 C 222.228 284.307,222.228 274.288,222.168 268.234 C 222.107 262.180,222.058 267.246,222.058 279.492 M264.844 262.500 L 264.844 267.578 260.449 267.584 C 258.032 267.587,255.851 267.719,255.603 267.877 C 255.354 268.035,257.419 268.164,260.191 268.164 L 265.232 268.164 265.233 262.793 C 265.234 259.839,265.146 257.422,265.039 257.422 C 264.932 257.422,264.844 259.707,264.844 262.500 M212.109 258.854 C 216.307 259.138,221.486 259.156,221.485 258.887 C 221.485 258.726,218.979 258.625,215.918 258.664 C 212.856 258.703,211.143 258.788,212.109 258.854 M102.657 267.870 C 104.871 267.939,108.387 267.939,110.470 267.869 C 112.553 267.799,110.742 267.742,106.445 267.742 C 102.148 267.743,100.444 267.800,102.657 267.870 M254.150 268.570 C 254.016 268.919,253.941 271.519,253.983 274.348 L 254.059 279.492 254.276 273.828 C 254.510 267.685,254.509 267.633,254.150 268.570 M114.934 269.922 C 114.934 270.674,115.015 270.981,115.113 270.605 C 115.211 270.229,115.211 269.614,115.113 269.238 C 115.015 268.862,114.934 269.170,114.934 269.922 M255.164 274.121 L 255.078 279.688 249.902 279.764 C 246.884 279.809,245.862 279.898,247.450 279.979 C 248.997 280.058,250.302 280.320,250.472 280.586 C 250.691 280.931,250.771 280.913,250.775 280.516 C 250.780 280.109,251.210 280.025,252.531 280.174 C 255.418 280.499,255.510 280.299,255.371 274.020 L 255.249 268.555 255.164 274.121 M238.867 269.531 L 233.789 269.762 238.746 269.842 C 241.719 269.890,243.801 269.766,243.945 269.531 C 244.078 269.316,244.132 269.177,244.066 269.220 C 244.000 269.264,241.660 269.404,238.867 269.531 M234.154 279.883 C 234.153 285.254,234.209 287.505,234.276 284.886 C 234.343 282.267,234.344 277.872,234.276 275.120 C 234.209 272.369,234.154 274.512,234.154 279.883 M114.975 275.000 C 114.975 276.611,115.044 277.271,115.128 276.465 C 115.213 275.659,115.213 274.341,115.128 273.535 C 115.044 272.729,114.975 273.389,114.975 275.000 M113.837 280.664 C 113.838 285.176,113.894 286.968,113.964 284.647 C 114.033 282.325,114.032 278.634,113.963 276.444 C 113.894 274.253,113.837 276.152,113.837 280.664 M232.758 274.316 C 232.680 275.015,232.724 276.289,232.855 277.148 C 233.044 278.394,233.103 278.137,233.148 275.879 C 233.205 272.935,233.001 272.116,232.758 274.316 M245.313 278.669 C 245.313 279.048,246.413 279.191,246.910 278.876 C 247.311 278.622,247.169 278.526,246.387 278.522 C 245.796 278.518,245.313 278.585,245.313 278.669 M250.884 278.796 C 251.478 278.886,252.357 278.883,252.837 278.791 C 253.318 278.698,252.832 278.624,251.758 278.627 C 250.684 278.630,250.291 278.706,250.884 278.796 M243.901 284.375 C 243.901 287.061,243.963 288.159,244.039 286.816 C 244.115 285.474,244.115 283.276,244.039 281.934 C 243.963 280.591,243.901 281.689,243.901 284.375 M220.815 282.227 C 220.818 283.301,220.894 283.694,220.983 283.100 C 221.073 282.506,221.071 281.627,220.978 281.147 C 220.885 280.667,220.812 281.152,220.815 282.227 M232.951 284.961 C 232.950 286.895,233.016 287.735,233.098 286.828 C 233.180 285.922,233.181 284.340,233.100 283.313 C 233.019 282.286,232.952 283.027,232.951 284.961 M114.825 288.955 C 114.717 289.862,114.779 290.456,114.961 290.274 C 115.142 290.092,115.230 289.349,115.155 288.624 C 115.023 287.337,115.015 287.345,114.825 288.955 M105.572 290.124 C 106.166 290.214,107.044 290.211,107.525 290.119 C 108.005 290.026,107.520 289.953,106.445 289.955 C 105.371 289.958,104.978 290.034,105.572 290.124 M110.063 290.120 C 110.549 290.213,111.252 290.210,111.626 290.112 C 111.999 290.014,111.602 289.938,110.742 289.942 C 109.883 289.947,109.577 290.027,110.063 290.120 M237.891 289.995 C 237.891 290.078,238.409 290.222,239.042 290.315 C 239.675 290.408,240.104 290.340,239.995 290.164 C 239.802 289.851,237.891 289.697,237.891 289.995 M240.625 289.994 C 240.625 290.076,241.064 290.227,241.602 290.330 C 242.139 290.433,242.578 290.365,242.578 290.180 C 242.578 289.995,242.139 289.844,241.602 289.844 C 241.064 289.844,240.625 289.911,240.625 289.994 M103.210 296.191 L 103.295 301.367 103.417 296.401 L 103.539 291.434 107.336 291.307 L 111.133 291.179 107.129 291.097 L 103.125 291.016 103.210 296.191 M160.456 300.674 C 161.158 300.761,162.213 300.759,162.800 300.670 C 163.387 300.581,162.813 300.509,161.523 300.512 C 160.234 300.514,159.754 300.587,160.456 300.674 M164.751 300.667 C 165.237 300.760,165.940 300.757,166.313 300.659 C 166.687 300.561,166.289 300.485,165.430 300.489 C 164.570 300.493,164.265 300.573,164.751 300.667 M169.449 300.680 C 170.800 300.757,172.909 300.756,174.136 300.679 C 175.363 300.602,174.258 300.539,171.680 300.540 C 169.102 300.541,168.098 300.604,169.449 300.680 M179.383 306.543 L 179.297 312.109 184.668 312.024 L 190.039 311.939 184.874 311.817 L 179.709 311.696 179.589 306.336 L 179.468 300.977 179.383 306.543 M265.985 302.637 C 266.171 303.985,266.199 304.012,266.327 302.980 C 266.404 302.363,266.313 301.704,266.125 301.515 C 265.928 301.319,265.868 301.797,265.985 302.637 M91.976 318.359 C 91.976 327.705,92.027 331.528,92.089 326.855 C 92.152 322.183,92.152 314.536,92.089 309.863 C 92.027 305.190,91.976 309.014,91.976 318.359 M155.469 306.637 L 155.469 311.712 134.668 311.816 L 113.867 311.921 134.863 312.015 L 155.859 312.109 155.859 306.836 C 155.859 303.936,155.771 301.563,155.664 301.563 C 155.557 301.563,155.469 303.846,155.469 306.637 M157.422 302.148 C 157.422 302.471,157.608 302.734,157.836 302.734 C 158.063 302.734,158.141 302.559,158.008 302.344 C 157.875 302.129,158.118 301.953,158.548 301.953 C 158.977 301.953,159.439 302.132,159.574 302.350 C 159.709 302.568,160.002 302.634,160.225 302.497 C 160.817 302.131,159.783 301.576,158.496 301.568 C 157.799 301.565,157.422 301.768,157.422 302.148 M178.224 302.930 C 178.228 303.789,178.308 304.095,178.401 303.609 C 178.495 303.123,178.491 302.420,178.393 302.046 C 178.296 301.673,178.219 302.070,178.224 302.930 M92.815 302.962 C 92.685 303.301,92.605 304.224,92.637 305.012 C 92.694 306.398,92.703 306.387,92.930 304.688 L 93.164 302.930 98.242 302.716 L 103.320 302.503 98.186 302.424 C 93.817 302.356,93.017 302.436,92.815 302.962 M243.243 302.637 L 264.807 302.741 264.945 305.179 L 265.084 307.617 265.159 304.980 L 265.234 302.344 243.457 302.438 L 221.680 302.532 243.243 302.637 M276.563 312.695 C 276.563 313.232,276.630 313.672,276.712 313.672 C 276.795 313.672,276.946 313.232,277.049 312.695 C 277.151 312.158,277.084 311.719,276.899 311.719 C 276.714 311.719,276.563 312.158,276.563 312.695 M112.891 323.438 L 112.891 334.375 102.952 334.375 L 93.014 334.375 92.855 332.810 L 92.697 331.244 92.735 332.907 L 92.773 334.570 103.027 334.674 L 113.281 334.779 113.281 323.639 C 113.281 317.513,113.193 312.500,113.086 312.500 C 112.979 312.500,112.891 317.422,112.891 323.438 M275.316 312.793 C 275.250 312.954,275.292 315.107,275.410 317.578 L 275.625 322.070 275.703 317.285 C 275.773 312.976,275.681 311.906,275.316 312.793 M276.713 319.141 C 276.713 321.826,276.775 322.925,276.852 321.582 C 276.928 320.239,276.928 318.042,276.852 316.699 C 276.775 315.356,276.713 316.455,276.713 319.141 M190.716 316.797 C 190.716 317.549,190.796 317.856,190.894 317.480 C 190.993 317.104,190.993 316.489,190.894 316.113 C 190.796 315.737,190.716 316.045,190.716 316.797 M190.737 320.117 C 190.740 321.191,190.816 321.584,190.905 320.991 C 190.995 320.397,190.993 319.518,190.900 319.038 C 190.807 318.557,190.734 319.043,190.737 320.117 M204.814 323.340 C 212.725 323.399,225.557 323.399,233.330 323.340 C 241.102 323.281,234.629 323.232,218.945 323.232 C 203.262 323.232,196.903 323.281,204.814 323.340 M252.637 323.339 C 255.483 323.406,260.142 323.406,262.988 323.339 C 265.835 323.272,263.506 323.217,257.813 323.217 C 252.119 323.217,249.790 323.272,252.637 323.339 M270.228 323.335 C 271.363 323.414,273.121 323.414,274.134 323.333 C 275.147 323.253,274.219 323.189,272.070 323.190 C 269.922 323.191,269.093 323.256,270.228 323.335 M189.974 324.414 C 189.974 324.672,204.529 324.805,232.858 324.805 C 256.444 324.805,275.612 324.674,275.453 324.515 C 274.992 324.055,189.974 323.954,189.974 324.414 M114.182 334.894 C 114.224 335.108,113.818 335.412,113.281 335.571 C 112.430 335.823,112.409 335.865,113.123 335.899 C 113.573 335.920,114.233 335.615,114.590 335.221 C 115.121 334.634,115.136 334.505,114.672 334.505 C 114.361 334.505,114.140 334.680,114.182 334.894 " stroke="none" fill="#6c3b24" fill-rule="evenodd"></path><path id="path4" d="M146.996 72.461 C 146.998 73.750,147.071 74.230,147.158 73.528 C 147.245 72.826,147.243 71.771,147.154 71.184 C 147.065 70.597,146.994 71.172,146.996 72.461 M167.338 86.719 C 167.338 89.404,167.400 90.503,167.477 89.160 C 167.553 87.817,167.553 85.620,167.477 84.277 C 167.400 82.935,167.338 84.033,167.338 86.719 M51.855 103.411 C 52.769 103.493,54.263 103.493,55.176 103.411 C 56.089 103.329,55.342 103.261,53.516 103.261 C 51.689 103.261,50.942 103.329,51.855 103.411 M181.348 103.414 C 182.583 103.491,184.604 103.491,185.840 103.414 C 187.075 103.336,186.064 103.273,183.594 103.273 C 181.123 103.273,180.112 103.336,181.348 103.414 M188.402 105.664 C 188.404 106.953,188.477 107.433,188.564 106.731 C 188.651 106.029,188.649 104.975,188.560 104.388 C 188.471 103.801,188.400 104.375,188.402 105.664 M250.098 103.808 C 252.837 103.875,257.319 103.875,260.059 103.808 C 262.798 103.740,260.557 103.685,255.078 103.685 C 249.600 103.685,247.358 103.740,250.098 103.808 M265.299 108.789 C 265.270 111.152,265.375 113.289,265.533 113.538 C 265.691 113.787,265.771 112.293,265.710 110.218 C 265.546 104.588,265.358 103.936,265.299 108.789 M188.380 113.867 C 188.384 114.727,188.464 115.032,188.558 114.546 C 188.651 114.060,188.647 113.357,188.550 112.984 C 188.452 112.610,188.375 113.008,188.380 113.867 M270.801 114.350 C 271.821 114.430,273.491 114.430,274.512 114.350 C 275.532 114.269,274.697 114.203,272.656 114.203 C 270.615 114.203,269.780 114.269,270.801 114.350 M188.406 117.969 C 188.406 119.365,188.477 119.937,188.564 119.238 C 188.650 118.540,188.650 117.397,188.564 116.699 C 188.477 116.001,188.406 116.572,188.406 117.969 M275.933 120.508 C 275.934 123.301,275.996 124.392,276.071 122.933 C 276.147 121.474,276.146 119.189,276.070 117.855 C 275.994 116.521,275.932 117.715,275.933 120.508 M188.372 123.047 C 188.372 123.799,188.452 124.106,188.551 123.730 C 188.649 123.354,188.649 122.739,188.551 122.363 C 188.452 121.987,188.372 122.295,188.372 123.047 M188.398 126.563 C 188.398 127.744,188.472 128.228,188.561 127.637 C 188.651 127.046,188.651 126.079,188.561 125.488 C 188.472 124.897,188.398 125.381,188.398 126.563 M188.402 136.523 C 188.404 137.813,188.477 138.293,188.564 137.591 C 188.651 136.889,188.649 135.834,188.560 135.247 C 188.471 134.660,188.400 135.234,188.402 136.523 M50.125 139.063 C 50.125 140.459,50.196 141.030,50.283 140.332 C 50.369 139.634,50.369 138.491,50.283 137.793 C 50.196 137.095,50.125 137.666,50.125 139.063 M308.458 137.207 C 308.558 137.368,310.821 137.500,313.488 137.500 L 318.335 137.500 318.463 142.090 L 318.591 146.680 318.573 141.992 L 318.555 137.305 313.415 137.109 C 310.588 137.002,308.357 137.046,308.458 137.207 M188.388 142.188 C 188.388 143.154,188.464 143.550,188.557 143.066 C 188.650 142.583,188.650 141.792,188.557 141.309 C 188.464 140.825,188.388 141.221,188.388 142.188 M50.684 146.760 C 51.167 146.853,51.958 146.853,52.441 146.760 C 52.925 146.667,52.529 146.591,51.563 146.591 C 50.596 146.591,50.200 146.667,50.684 146.760 M54.204 146.761 C 54.690 146.854,55.393 146.851,55.766 146.753 C 56.140 146.655,55.742 146.579,54.883 146.583 C 54.023 146.587,53.718 146.667,54.204 146.761 M61.426 146.775 C 63.091 146.848,65.815 146.848,67.480 146.775 C 69.146 146.702,67.783 146.642,64.453 146.642 C 61.123 146.642,59.761 146.702,61.426 146.775 M91.888 148.828 C 91.888 149.580,91.968 149.888,92.066 149.512 C 92.164 149.136,92.164 148.521,92.066 148.145 C 91.968 147.769,91.888 148.076,91.888 148.828 M188.429 153.125 C 188.429 155.596,188.492 156.606,188.570 155.371 C 188.647 154.136,188.647 152.114,188.570 150.879 C 188.492 149.644,188.429 150.654,188.429 153.125 M82.329 158.870 C 82.815 158.963,83.518 158.960,83.891 158.862 C 84.265 158.764,83.867 158.688,83.008 158.692 C 82.148 158.697,81.843 158.777,82.329 158.870 M81.341 169.206 C 81.291 174.721,81.149 179.555,81.025 179.949 C 80.821 180.598,80.840 180.603,81.227 180.003 C 81.515 179.557,81.618 176.069,81.543 169.261 L 81.432 159.180 81.341 169.206 M233.744 164.063 C 233.744 166.748,233.807 167.847,233.883 166.504 C 233.959 165.161,233.959 162.964,233.883 161.621 C 233.807 160.278,233.744 161.377,233.744 164.063 M170.817 169.431 C 172.276 169.506,174.561 169.505,175.895 169.429 C 177.229 169.353,176.035 169.292,173.242 169.292 C 170.449 169.293,169.358 169.355,170.817 169.431 M300.081 169.821 C 301.521 169.895,303.982 169.896,305.549 169.822 C 307.116 169.747,305.938 169.686,302.930 169.685 C 299.922 169.685,298.640 169.746,300.081 169.821 M222.754 170.571 C 222.485 170.680,222.266 170.951,222.266 171.174 C 222.266 171.446,222.435 171.440,222.776 171.156 C 223.057 170.923,225.123 170.675,227.366 170.605 L 231.445 170.477 227.344 170.426 C 225.088 170.397,223.022 170.463,222.754 170.571 M348.145 170.582 C 348.521 170.680,349.136 170.680,349.512 170.582 C 349.888 170.484,349.580 170.403,348.828 170.403 C 348.076 170.403,347.769 170.484,348.145 170.582 M351.278 176.563 C 351.278 177.529,351.354 177.925,351.448 177.441 C 351.541 176.958,351.541 176.167,351.448 175.684 C 351.354 175.200,351.278 175.596,351.278 176.563 M222.624 178.906 L 222.461 179.883 213.672 180.089 L 204.883 180.296 213.782 180.382 C 223.226 180.474,223.367 180.447,222.950 178.636 C 222.826 178.094,222.750 178.157,222.624 178.906 M182.129 180.368 C 183.794 180.442,186.519 180.442,188.184 180.368 C 189.849 180.295,188.486 180.235,185.156 180.235 C 181.826 180.235,180.464 180.295,182.129 180.368 M192.676 180.363 C 193.481 180.447,194.800 180.447,195.605 180.363 C 196.411 180.278,195.752 180.209,194.141 180.209 C 192.529 180.209,191.870 180.278,192.676 180.363 M198.926 180.363 C 199.731 180.447,201.050 180.447,201.855 180.363 C 202.661 180.278,202.002 180.209,200.391 180.209 C 198.779 180.209,198.120 180.278,198.926 180.363 M70.103 199.609 C 70.103 210.029,70.153 214.292,70.215 209.082 C 70.276 203.872,70.276 195.347,70.215 190.137 C 70.153 184.927,70.103 189.189,70.103 199.609 M351.325 185.938 C 351.325 188.838,351.386 190.024,351.462 188.574 C 351.537 187.124,351.537 184.751,351.462 183.301 C 351.386 181.851,351.325 183.037,351.325 185.938 M159.082 192.066 C 159.458 192.164,160.073 192.164,160.449 192.066 C 160.825 191.968,160.518 191.888,159.766 191.888 C 159.014 191.888,158.706 191.968,159.082 192.066 M175.884 192.077 C 176.478 192.167,177.357 192.165,177.837 192.072 C 178.318 191.979,177.832 191.906,176.758 191.909 C 175.684 191.912,175.291 191.987,175.884 192.077 M148.741 203.412 C 149.660 203.494,151.066 203.493,151.866 203.409 C 152.666 203.325,151.914 203.257,150.195 203.259 C 148.477 203.260,147.822 203.329,148.741 203.412 M154.204 203.401 C 154.690 203.495,155.393 203.491,155.766 203.393 C 156.140 203.296,155.742 203.219,154.883 203.224 C 154.023 203.228,153.718 203.308,154.204 203.401 M134.075 210.938 C 134.075 211.689,134.155 211.997,134.254 211.621 C 134.352 211.245,134.352 210.630,134.254 210.254 C 134.155 209.878,134.075 210.186,134.075 210.938 M286.884 220.508 C 286.884 225.020,286.941 226.812,287.010 224.490 C 287.080 222.169,287.079 218.478,287.010 216.287 C 286.940 214.097,286.884 215.996,286.884 220.508 M135.693 215.026 C 135.572 215.341,135.564 215.825,135.675 216.100 C 135.785 216.376,135.890 216.212,135.907 215.735 C 135.936 214.898,136.095 214.864,140.527 214.745 L 145.117 214.621 140.515 214.537 C 136.776 214.469,135.872 214.561,135.693 215.026 M123.224 229.492 C 123.224 237.441,123.276 240.638,123.339 236.596 C 123.403 232.553,123.403 226.049,123.339 222.142 C 123.276 218.236,123.224 221.543,123.224 229.492 M70.087 226.758 C 70.088 231.270,70.144 233.062,70.214 230.740 C 70.283 228.419,70.282 224.728,70.213 222.537 C 70.144 220.347,70.087 222.246,70.087 226.758 M135.645 220.508 C 135.650 221.367,135.730 221.673,135.823 221.187 C 135.917 220.701,135.913 219.998,135.815 219.624 C 135.717 219.251,135.641 219.648,135.645 220.508 M286.809 230.078 C 286.809 230.830,286.890 231.138,286.988 230.762 C 287.086 230.386,287.086 229.771,286.988 229.395 C 286.890 229.019,286.809 229.326,286.809 230.078 M135.681 234.570 C 135.682 236.289,135.751 236.944,135.833 236.025 C 135.916 235.106,135.915 233.700,135.831 232.900 C 135.747 232.100,135.679 232.852,135.681 234.570 M298.340 232.324 C 303.979 232.385,313.208 232.385,318.848 232.324 C 324.487 232.263,319.873 232.213,308.594 232.213 C 297.314 232.213,292.700 232.263,298.340 232.324 M81.419 247.070 C 81.419 252.441,81.474 254.693,81.542 252.074 C 81.609 249.454,81.609 245.060,81.542 242.308 C 81.475 239.556,81.420 241.699,81.419 247.070 M188.415 241.211 C 188.417 242.930,188.485 243.584,188.568 242.665 C 188.650 241.747,188.649 240.340,188.565 239.540 C 188.481 238.740,188.414 239.492,188.415 241.211 M135.451 244.727 C 135.349 245.264,135.416 245.703,135.601 245.703 C 135.786 245.703,135.938 245.264,135.938 244.727 C 135.938 244.189,135.870 243.750,135.788 243.750 C 135.705 243.750,135.554 244.189,135.451 244.727 M226.465 245.599 C 227.378 245.681,228.872 245.681,229.785 245.599 C 230.698 245.516,229.951 245.449,228.125 245.449 C 226.299 245.449,225.552 245.516,226.465 245.599 M189.010 247.370 C 189.175 247.535,193.869 247.623,199.440 247.565 L 209.570 247.460 199.140 247.265 C 193.403 247.158,188.845 247.205,189.010 247.370 M233.744 251.563 C 233.744 254.248,233.807 255.347,233.883 254.004 C 233.959 252.661,233.959 250.464,233.883 249.121 C 233.807 247.778,233.744 248.877,233.744 251.563 M209.894 250.586 C 209.896 252.090,209.966 252.657,210.051 251.847 C 210.135 251.036,210.134 249.806,210.048 249.112 C 209.961 248.419,209.892 249.082,209.894 250.586 M84.489 256.540 C 85.948 256.615,88.233 256.615,89.567 256.539 C 90.901 256.463,89.707 256.401,86.914 256.402 C 84.121 256.402,83.030 256.465,84.489 256.540 M276.880 256.542 C 280.169 256.608,285.443 256.608,288.598 256.542 C 291.754 256.476,289.063 256.423,282.617 256.423 C 276.172 256.423,273.590 256.477,276.880 256.542 M308.080 256.542 C 311.772 256.606,317.925 256.606,321.752 256.542 C 325.579 256.478,322.559 256.426,315.039 256.426 C 307.520 256.426,304.388 256.478,308.080 256.542 M265.341 258.984 C 265.341 259.951,265.417 260.347,265.510 259.863 C 265.603 259.380,265.603 258.589,265.510 258.105 C 265.417 257.622,265.341 258.018,265.341 258.984 M91.914 263.672 C 91.914 264.854,91.987 265.337,92.077 264.746 C 92.166 264.155,92.166 263.188,92.077 262.598 C 91.987 262.007,91.914 262.490,91.914 263.672 M244.124 266.992 L 243.945 268.945 238.867 269.141 L 233.789 269.336 233.779 279.492 L 233.768 289.648 233.883 279.590 L 233.998 269.531 238.826 269.531 C 244.352 269.531,244.658 269.379,244.441 266.728 L 244.303 265.039 244.124 266.992 M114.453 279.218 L 114.648 290.039 114.752 279.518 C 114.810 273.732,114.722 268.862,114.557 268.697 C 114.393 268.532,114.345 273.267,114.453 279.218 M244.285 284.375 C 244.285 286.631,244.350 287.554,244.429 286.426 C 244.508 285.298,244.508 283.452,244.429 282.324 C 244.350 281.196,244.285 282.119,244.285 284.375 M105.549 290.914 C 106.990 290.989,109.451 290.990,111.018 290.915 C 112.585 290.841,111.406 290.780,108.398 290.779 C 105.391 290.779,104.109 290.839,105.549 290.914 M102.442 295.117 C 102.447 295.977,102.527 296.282,102.620 295.796 C 102.713 295.310,102.710 294.607,102.612 294.234 C 102.514 293.860,102.438 294.258,102.442 295.117 M265.384 307.227 C 265.384 309.805,265.447 310.809,265.524 309.457 C 265.600 308.106,265.600 305.997,265.523 304.770 C 265.445 303.543,265.383 304.648,265.384 307.227 M270.410 312.006 C 271.431 312.086,273.101 312.086,274.121 312.006 C 275.142 311.925,274.307 311.860,272.266 311.860 C 270.225 311.860,269.390 311.925,270.410 312.006 M181.934 312.399 C 183.491 312.474,186.040 312.474,187.598 312.399 C 189.155 312.325,187.881 312.265,184.766 312.265 C 181.650 312.265,180.376 312.325,181.934 312.399 M113.380 314.258 C 113.384 315.117,113.464 315.423,113.558 314.937 C 113.651 314.451,113.647 313.748,113.550 313.374 C 113.452 313.001,113.375 313.398,113.380 314.258 M275.866 318.057 L 275.781 323.419 269.043 323.536 L 262.305 323.653 269.055 323.740 C 276.980 323.843,276.237 324.478,276.074 317.753 L 275.951 312.695 275.866 318.057 M113.406 321.094 C 113.406 322.490,113.477 323.062,113.564 322.363 C 113.650 321.665,113.650 320.522,113.564 319.824 C 113.477 319.126,113.406 319.697,113.406 321.094 M194.238 323.707 C 194.614 323.805,195.229 323.805,195.605 323.707 C 195.981 323.609,195.674 323.528,194.922 323.528 C 194.170 323.528,193.862 323.609,194.238 323.707 M198.926 323.727 C 200.376 323.802,202.749 323.802,204.199 323.727 C 205.649 323.652,204.463 323.591,201.563 323.591 C 198.662 323.591,197.476 323.652,198.926 323.727 M208.112 323.721 C 208.815 323.808,209.869 323.806,210.456 323.717 C 211.043 323.627,210.469 323.556,209.180 323.559 C 207.891 323.561,207.410 323.634,208.112 323.721 M215.723 323.729 C 218.032 323.798,221.812 323.798,224.121 323.729 C 226.431 323.660,224.541 323.603,219.922 323.603 C 215.303 323.603,213.413 323.660,215.723 323.729 M230.777 323.727 C 232.128 323.804,234.238 323.803,235.465 323.726 C 236.691 323.648,235.586 323.586,233.008 323.587 C 230.430 323.587,229.426 323.651,230.777 323.727 M244.067 323.730 C 247.357 323.795,252.630 323.795,255.786 323.729 C 258.942 323.664,256.250 323.610,249.805 323.611 C 243.359 323.611,240.777 323.664,244.067 323.730 M113.372 325.000 C 113.372 325.752,113.452 326.060,113.551 325.684 C 113.649 325.308,113.649 324.692,113.551 324.316 C 113.452 323.940,113.372 324.248,113.372 325.000 M113.413 329.297 C 113.413 330.908,113.482 331.567,113.566 330.762 C 113.650 329.956,113.650 328.638,113.566 327.832 C 113.482 327.026,113.413 327.686,113.413 329.297 " stroke="none" fill="#4c2414" fill-rule="evenodd"></path></g></svg>